solid OpenSCAD_Model
  facet normal -1 0 0
    outer loop
      vertex -50.4901 -0.997736 0
      vertex -50.4901 0.997736 34.7234
      vertex -50.4901 0.997736 0
    endloop
  endfacet
  facet normal -1 -0 0
    outer loop
      vertex -50.4901 0.997736 34.7234
      vertex -50.4901 -0.997736 0
      vertex -50.4901 -0.997736 34.7234
    endloop
  endfacet
  facet normal -0.0296329 0.999561 0
    outer loop
      vertex -0.498892 50.4975 0
      vertex -2.49349 50.4384 62
      vertex -0.498892 50.4975 62
    endloop
  endfacet
  facet normal -0.0296329 0.999561 0
    outer loop
      vertex -2.49349 50.4384 62
      vertex -0.498892 50.4975 0
      vertex -2.49349 50.4384 0
    endloop
  endfacet
  facet normal 0.00987954 -0.999951 0
    outer loop
      vertex -0.498892 -50.4975 0
      vertex 1.49648 -50.4778 62
      vertex -0.498892 -50.4975 62
    endloop
  endfacet
  facet normal 0.00987954 -0.999951 0
    outer loop
      vertex 1.49648 -50.4778 62
      vertex -0.498892 -50.4975 0
      vertex 1.49648 -50.4778 0
    endloop
  endfacet
  facet normal 0.689429 0.724353 -0
    outer loop
      vertex 35.5321 35.8848 0
      vertex 34.0866 37.2606 62
      vertex 35.5321 35.8848 62
    endloop
  endfacet
  facet normal 0.689429 0.724353 0
    outer loop
      vertex 34.0866 37.2606 62
      vertex 35.5321 35.8848 0
      vertex 34.0866 37.2606 0
    endloop
  endfacet
  facet normal -0.73113 0.682239 0
    outer loop
      vertex -37.5955 33.7169 0
      vertex -36.2341 35.1758 62
      vertex -36.2341 35.1758 0
    endloop
  endfacet
  facet normal -0.73113 0.682239 0
    outer loop
      vertex -36.2341 35.1758 62
      vertex -37.5955 33.7169 0
      vertex -37.5955 33.7169 62
    endloop
  endfacet
  facet normal -0.412144 0.911119 0
    outer loop
      vertex -19.9002 46.4137 0
      vertex -21.7183 45.5913 62
      vertex -19.9002 46.4137 62
    endloop
  endfacet
  facet normal -0.412144 0.911119 0
    outer loop
      vertex -21.7183 45.5913 62
      vertex -19.9002 46.4137 0
      vertex -21.7183 45.5913 0
    endloop
  endfacet
  facet normal 0.915145 0.403124 0
    outer loop
      vertex 46.608 19.4407 62
      vertex 45.8036 21.2668 0
      vertex 45.8036 21.2668 62
    endloop
  endfacet
  facet normal 0.915145 0.403124 0
    outer loop
      vertex 45.8036 21.2668 0
      vertex 46.608 19.4407 62
      vertex 46.608 19.4407 0
    endloop
  endfacet
  facet normal 0.357445 0.933934 -0
    outer loop
      vertex 18.9793 46.7978 0
      vertex 17.1157 47.5111 62
      vertex 18.9793 46.7978 62
    endloop
  endfacet
  facet normal 0.357445 0.933934 0
    outer loop
      vertex 17.1157 47.5111 62
      vertex 18.9793 46.7978 0
      vertex 17.1157 47.5111 0
    endloop
  endfacet
  facet normal 0.533822 0.845597 -0
    outer loop
      vertex 27.7965 42.1616 0
      vertex 26.1091 43.2269 62
      vertex 27.7965 42.1616 62
    endloop
  endfacet
  facet normal 0.533822 0.845597 0
    outer loop
      vertex 26.1091 43.2269 62
      vertex 27.7965 42.1616 0
      vertex 26.1091 43.2269 0
    endloop
  endfacet
  facet normal -0.922931 0.384965 0
    outer loop
      vertex -46.983 18.516 0
      vertex -46.2149 20.3577 62
      vertex -46.2149 20.3577 0
    endloop
  endfacet
  facet normal -0.922931 0.384965 0
    outer loop
      vertex -46.2149 20.3577 62
      vertex -46.983 18.516 0
      vertex -46.983 18.516 62
    endloop
  endfacet
  facet normal -0.225272 0.974296 0
    outer loop
      vertex -10.4019 49.4171 0
      vertex -12.3461 48.9676 62
      vertex -10.4019 49.4171 62
    endloop
  endfacet
  facet normal -0.225272 0.974296 0
    outer loop
      vertex -12.3461 48.9676 62
      vertex -10.4019 49.4171 0
      vertex -12.3461 48.9676 0
    endloop
  endfacet
  facet normal 0.818206 0.574925 0
    outer loop
      vertex 41.885 28.2117 62
      vertex 40.7377 29.8444 0
      vertex 40.7377 29.8444 62
    endloop
  endfacet
  facet normal 0.818206 0.574925 0
    outer loop
      vertex 40.7377 29.8444 0
      vertex 41.885 28.2117 62
      vertex 41.885 28.2117 0
    endloop
  endfacet
  facet normal 0.861044 0.508531 0
    outer loop
      vertex 43.9816 24.8167 62
      vertex 42.9668 26.5349 0
      vertex 42.9668 26.5349 62
    endloop
  endfacet
  facet normal 0.861044 0.508531 0
    outer loop
      vertex 42.9668 26.5349 0
      vertex 43.9816 24.8167 62
      vertex 43.9816 24.8167 0
    endloop
  endfacet
  facet normal 0.167159 0.98593 -0
    outer loop
      vertex 9.42355 49.613 0
      vertex 7.45615 49.9465 62
      vertex 9.42355 49.613 62
    endloop
  endfacet
  facet normal 0.167159 0.98593 0
    outer loop
      vertex 7.45615 49.9465 62
      vertex 9.42355 49.613 0
      vertex 7.45615 49.9465 0
    endloop
  endfacet
  facet normal 0.598918 0.80081 -0
    outer loop
      vertex 31.0385 39.8355 0
      vertex 29.4405 41.0306 62
      vertex 31.0385 39.8355 62
    endloop
  endfacet
  facet normal 0.598918 0.80081 0
    outer loop
      vertex 29.4405 41.0306 62
      vertex 31.0385 39.8355 0
      vertex 29.4405 41.0306 0
    endloop
  endfacet
  facet normal -0.980543 0.196302 0
    outer loop
      vertex -49.7036 8.93296 0
      vertex -49.3119 10.8896 34.1989
      vertex -49.3119 10.8896 0
    endloop
  endfacet
  facet normal -0.980543 0.196302 0
    outer loop
      vertex -49.3119 10.8896 34.1989
      vertex -49.7036 8.93296 0
      vertex -49.7036 8.93296 34.3733
    endloop
  endfacet
  facet normal -0.850828 0.525445 0
    outer loop
      vertex -43.4827 25.6808 0
      vertex -42.4342 27.3786 62
      vertex -42.4342 27.3786 0
    endloop
  endfacet
  facet normal -0.850828 0.525445 0
    outer loop
      vertex -42.4342 27.3786 62
      vertex -43.4827 25.6808 0
      vertex -43.4827 25.6808 62
    endloop
  endfacet
  facet normal -0.582979 0.812487 0
    outer loop
      vertex -28.6241 41.6042 0
      vertex -30.2454 40.4409 62
      vertex -28.6241 41.6042 62
    endloop
  endfacet
  facet normal -0.582979 0.812487 0
    outer loop
      vertex -30.2454 40.4409 62
      vertex -28.6241 41.6042 0
      vertex -30.2454 40.4409 0
    endloop
  endfacet
  facet normal -0.147646 0.98904 0
    outer loop
      vertex -6.46789 50.0841 0
      vertex -8.4415 49.7895 62
      vertex -6.46789 50.0841 62
    endloop
  endfacet
  facet normal -0.147646 0.98904 0
    outer loop
      vertex -8.4415 49.7895 62
      vertex -6.46789 50.0841 0
      vertex -8.4415 49.7895 0
    endloop
  endfacet
  facet normal 0.717506 -0.696552 0
    outer loop
      vertex 35.5321 -35.8848 62
      vertex 36.922 -34.4531 0
      vertex 36.922 -34.4531 62
    endloop
  endfacet
  facet normal 0.717506 -0.696552 0
    outer loop
      vertex 36.922 -34.4531 0
      vertex 35.5321 -35.8848 62
      vertex 35.5321 -35.8848 0
    endloop
  endfacet
  facet normal -0.674983 -0.737833 0
    outer loop
      vertex -34.8162 -36.5799 0
      vertex -33.3438 -37.9268 62
      vertex -34.8162 -36.5799 62
    endloop
  endfacet
  facet normal -0.674983 -0.737833 -0
    outer loop
      vertex -33.3438 -37.9268 62
      vertex -34.8162 -36.5799 0
      vertex -33.3438 -37.9268 0
    endloop
  endfacet
  facet normal -0.907003 -0.421125 0
    outer loop
      vertex -45.3745 -22.1676 0
      vertex -46.2149 -20.3577 62
      vertex -46.2149 -20.3577 0
    endloop
  endfacet
  facet normal -0.907003 -0.421125 0
    outer loop
      vertex -46.2149 -20.3577 62
      vertex -45.3745 -22.1676 0
      vertex -45.3745 -22.1676 62
    endloop
  endfacet
  facet normal -0.806688 -0.590978 0
    outer loop
      vertex -40.1401 -30.6434 0
      vertex -41.3194 -29.0337 62
      vertex -41.3194 -29.0337 0
    endloop
  endfacet
  facet normal -0.806688 -0.590978 0
    outer loop
      vertex -41.3194 -29.0337 62
      vertex -40.1401 -30.6434 0
      vertex -40.1401 -30.6434 62
    endloop
  endfacet
  facet normal 0.0493748 -0.99878 0
    outer loop
      vertex 1.49648 -50.4778 0
      vertex 3.48952 -50.3793 62
      vertex 1.49648 -50.4778 62
    endloop
  endfacet
  facet normal 0.0493748 -0.99878 0
    outer loop
      vertex 3.48952 -50.3793 62
      vertex 1.49648 -50.4778 0
      vertex 3.48952 -50.3793 0
    endloop
  endfacet
  facet normal 0.956401 0.292056 0
    outer loop
      vertex 48.5802 13.7918 62
      vertex 47.9974 15.7002 0
      vertex 47.9974 15.7002 62
    endloop
  endfacet
  facet normal 0.956401 0.292056 0
    outer loop
      vertex 47.9974 15.7002 0
      vertex 48.5802 13.7918 62
      vertex 48.5802 13.7918 0
    endloop
  endfacet
  facet normal 0.967192 0.254045 0
    outer loop
      vertex 48.9852 12.25 62
      vertex 48.5802 13.7918 0
      vertex 48.5802 13.7918 62
    endloop
  endfacet
  facet normal 0.967192 0.254045 0
    outer loop
      vertex 48.5802 13.7918 0
      vertex 48.9852 12.25 62
      vertex 48.9852 12.25 0
    endloop
  endfacet
  facet normal 0.770262 0.637727 0
    outer loop
      vertex 39.5269 31.4305 62
      vertex 38.2543 32.9675 0
      vertex 38.2543 32.9675 62
    endloop
  endfacet
  facet normal 0.770262 0.637727 0
    outer loop
      vertex 38.2543 32.9675 0
      vertex 39.5269 31.4305 62
      vertex 39.5269 31.4305 0
    endloop
  endfacet
  facet normal 0.794854 0.6068 0
    outer loop
      vertex 40.7377 29.8444 62
      vertex 39.5269 31.4305 0
      vertex 39.5269 31.4305 62
    endloop
  endfacet
  facet normal 0.794854 0.6068 0
    outer loop
      vertex 39.5269 31.4305 0
      vertex 40.7377 29.8444 62
      vertex 40.7377 29.8444 0
    endloop
  endfacet
  facet normal 0.840281 0.542151 0
    outer loop
      vertex 42.9668 26.5349 62
      vertex 41.885 28.2117 0
      vertex 41.885 28.2117 62
    endloop
  endfacet
  facet normal 0.840281 0.542151 0
    outer loop
      vertex 41.885 28.2117 0
      vertex 42.9668 26.5349 62
      vertex 42.9668 26.5349 0
    endloop
  endfacet
  facet normal 0.898505 0.438963 0
    outer loop
      vertex 45.8036 21.2668 62
      vertex 44.9277 23.0598 0
      vertex 44.9277 23.0598 62
    endloop
  endfacet
  facet normal 0.898505 0.438963 0
    outer loop
      vertex 44.9277 23.0598 0
      vertex 45.8036 21.2668 62
      vertex 45.8036 21.2668 0
    endloop
  endfacet
  facet normal 0.0887974 0.99605 -0
    outer loop
      vertex 5.47711 50.2021 0
      vertex 3.48952 50.3793 62
      vertex 5.47711 50.2021 62
    endloop
  endfacet
  facet normal 0.0887974 0.99605 0
    outer loop
      vertex 3.48952 50.3793 62
      vertex 5.47711 50.2021 0
      vertex 3.48952 50.3793 0
    endloop
  endfacet
  facet normal 0.244477 0.969655 -0
    outer loop
      vertex 13.3112 48.7141 0
      vertex 11.3762 49.2019 62
      vertex 13.3112 48.7141 62
    endloop
  endfacet
  facet normal 0.244477 0.969655 0
    outer loop
      vertex 11.3762 49.2019 62
      vertex 13.3112 48.7141 0
      vertex 11.3762 49.2019 0
    endloop
  endfacet
  facet normal 0.320271 0.947326 -0
    outer loop
      vertex 17.1157 47.5111 0
      vertex 15.2253 48.1502 62
      vertex 17.1157 47.5111 62
    endloop
  endfacet
  facet normal 0.320271 0.947326 0
    outer loop
      vertex 15.2253 48.1502 62
      vertex 17.1157 47.5111 0
      vertex 15.2253 48.1502 0
    endloop
  endfacet
  facet normal 0.205979 0.978556 -0
    outer loop
      vertex 11.3762 49.2019 0
      vertex 9.42355 49.613 62
      vertex 11.3762 49.2019 62
    endloop
  endfacet
  facet normal 0.205979 0.978556 0
    outer loop
      vertex 9.42355 49.613 62
      vertex 11.3762 49.2019 0
      vertex 9.42355 49.613 0
    endloop
  endfacet
  facet normal 0.128077 0.991764 -0
    outer loop
      vertex 7.45615 49.9465 0
      vertex 5.47711 50.2021 62
      vertex 7.45615 49.9465 62
    endloop
  endfacet
  facet normal 0.128077 0.991764 0
    outer loop
      vertex 5.47711 50.2021 62
      vertex 7.45615 49.9465 0
      vertex 5.47711 50.2021 0
    endloop
  endfacet
  facet normal 0.0493748 0.99878 -0
    outer loop
      vertex 3.48952 50.3793 0
      vertex 1.49648 50.4778 62
      vertex 3.48952 50.3793 62
    endloop
  endfacet
  facet normal 0.0493748 0.99878 0
    outer loop
      vertex 1.49648 50.4778 62
      vertex 3.48952 50.3793 0
      vertex 1.49648 50.4778 0
    endloop
  endfacet
  facet normal 0.465396 0.885103 -0
    outer loop
      vertex 24.381 44.2246 0
      vertex 22.6148 45.1533 62
      vertex 24.381 44.2246 62
    endloop
  endfacet
  facet normal 0.465396 0.885103 0
    outer loop
      vertex 22.6148 45.1533 62
      vertex 24.381 44.2246 0
      vertex 22.6148 45.1533 0
    endloop
  endfacet
  facet normal 0.500001 0.866025 -0
    outer loop
      vertex 26.1091 43.2269 0
      vertex 24.381 44.2246 62
      vertex 26.1091 43.2269 62
    endloop
  endfacet
  facet normal 0.500001 0.866025 0
    outer loop
      vertex 24.381 44.2246 62
      vertex 26.1091 43.2269 0
      vertex 24.381 44.2246 0
    endloop
  endfacet
  facet normal 0.566814 0.823846 -0
    outer loop
      vertex 29.4405 41.0306 0
      vertex 27.7965 42.1616 62
      vertex 29.4405 41.0306 62
    endloop
  endfacet
  facet normal 0.566814 0.823846 0
    outer loop
      vertex 27.7965 42.1616 62
      vertex 29.4405 41.0306 0
      vertex 27.7965 42.1616 0
    endloop
  endfacet
  facet normal 0.630088 0.776524 -0
    outer loop
      vertex 32.588 38.5781 0
      vertex 31.0385 39.8355 62
      vertex 32.588 38.5781 62
    endloop
  endfacet
  facet normal 0.630088 0.776524 0
    outer loop
      vertex 31.0385 39.8355 62
      vertex 32.588 38.5781 0
      vertex 31.0385 39.8355 0
    endloop
  endfacet
  facet normal -0.996878 0.0789522 0
    outer loop
      vertex -50.4113 2.99165 0
      vertex -50.2538 4.9809 34.6182
      vertex -50.2538 4.9809 0
    endloop
  endfacet
  facet normal -0.996878 0.0789522 0
    outer loop
      vertex -50.2538 4.9809 34.6182
      vertex -50.4113 2.99165 0
      vertex -50.4113 2.99165 34.6884
    endloop
  endfacet
  facet normal -0.78271 0.622386 0
    outer loop
      vertex -40.1401 30.6434 0
      vertex -38.8982 32.2053 62
      vertex -38.8982 32.2053 0
    endloop
  endfacet
  facet normal -0.78271 0.622386 0
    outer loop
      vertex -38.8982 32.2053 62
      vertex -40.1401 30.6434 0
      vertex -40.1401 30.6434 62
    endloop
  endfacet
  facet normal -0.757511 0.652822 0
    outer loop
      vertex -38.8982 32.2053 0
      vertex -37.5955 33.7169 62
      vertex -37.5955 33.7169 0
    endloop
  endfacet
  facet normal -0.757511 0.652822 0
    outer loop
      vertex -37.5955 33.7169 62
      vertex -38.8982 32.2053 0
      vertex -38.8982 32.2053 62
    endloop
  endfacet
  facet normal -0.889657 0.456629 0
    outer loop
      vertex -45.3745 22.1676 0
      vertex -44.4633 23.9429 62
      vertex -44.4633 23.9429 0
    endloop
  endfacet
  facet normal -0.889657 0.456629 0
    outer loop
      vertex -44.4633 23.9429 62
      vertex -45.3745 22.1676 0
      vertex -45.3745 22.1676 62
    endloop
  endfacet
  facet normal -0.907003 0.421125 0
    outer loop
      vertex -46.2149 20.3577 0
      vertex -45.3745 22.1676 62
      vertex -45.3745 22.1676 0
    endloop
  endfacet
  facet normal -0.907003 0.421125 0
    outer loop
      vertex -45.3745 22.1676 62
      vertex -46.2149 20.3577 0
      vertex -46.2149 20.3577 62
    endloop
  endfacet
  facet normal -0.870923 0.49142 0
    outer loop
      vertex -44.4633 23.9429 0
      vertex -43.4827 25.6808 62
      vertex -43.4827 25.6808 0
    endloop
  endfacet
  facet normal -0.870923 0.49142 0
    outer loop
      vertex -43.4827 25.6808 62
      vertex -44.4633 23.9429 0
      vertex -44.4633 23.9429 62
    endloop
  endfacet
  facet normal -0.950444 0.310896 0
    outer loop
      vertex -48.2982 14.7489 0
      vertex -47.6779 16.6455 62
      vertex -47.6779 16.6455 0
    endloop
  endfacet
  facet normal -0.950444 0.310896 0
    outer loop
      vertex -47.6779 16.6455 62
      vertex -48.2982 14.7489 0
      vertex -48.2982 14.7489 62
    endloop
  endfacet
  facet normal -0.93742 0.3482 0
    outer loop
      vertex -47.6779 16.6455 0
      vertex -46.983 18.516 62
      vertex -46.983 18.516 0
    endloop
  endfacet
  facet normal -0.93742 0.3482 0
    outer loop
      vertex -46.983 18.516 62
      vertex -47.6779 16.6455 0
      vertex -47.6779 16.6455 62
    endloop
  endfacet
  facet normal -0.987533 0.157411 0
    outer loop
      vertex -50.0178 6.96236 0
      vertex -49.7036 8.93296 34.3733
      vertex -49.7036 8.93296 0
    endloop
  endfacet
  facet normal -0.987533 0.157411 0
    outer loop
      vertex -49.7036 8.93296 34.3733
      vertex -50.0178 6.96236 0
      vertex -50.0178 6.96236 34.5131
    endloop
  endfacet
  facet normal -0.999219 0.0395067 0
    outer loop
      vertex -50.4901 0.997736 0
      vertex -50.4113 2.99165 34.6884
      vertex -50.4113 2.99165 0
    endloop
  endfacet
  facet normal -0.999219 0.0395067 0
    outer loop
      vertex -50.4113 2.99165 34.6884
      vertex -50.4901 0.997736 0
      vertex -50.4901 0.997736 34.7234
    endloop
  endfacet
  facet normal 0 0 1
    outer loop
      vertex 47.9974 15.7002 62
      vertex 48.9852 12.25 62
      vertex 48.5802 13.7918 62
    endloop
  endfacet
  facet normal 0 0 1
    outer loop
      vertex 47.3397 17.5842 62
      vertex 48.9852 12.25 62
      vertex 47.9974 15.7002 62
    endloop
  endfacet
  facet normal 0 0 1
    outer loop
      vertex 46.608 19.4407 62
      vertex 48.9852 12.25 62
      vertex 47.3397 17.5842 62
    endloop
  endfacet
  facet normal 0 0 1
    outer loop
      vertex 45.8036 21.2668 62
      vertex 48.9852 12.25 62
      vertex 46.608 19.4407 62
    endloop
  endfacet
  facet normal 0 0 1
    outer loop
      vertex 44.9277 23.0598 62
      vertex 48.9852 12.25 62
      vertex 45.8036 21.2668 62
    endloop
  endfacet
  facet normal 0 0 1
    outer loop
      vertex 43.9816 24.8167 62
      vertex 48.9852 12.25 62
      vertex 44.9277 23.0598 62
    endloop
  endfacet
  facet normal 0 0 1
    outer loop
      vertex 42.9668 26.5349 62
      vertex 48.9852 12.25 62
      vertex 43.9816 24.8167 62
    endloop
  endfacet
  facet normal 0 0 1
    outer loop
      vertex 41.885 28.2117 62
      vertex 48.9852 12.25 62
      vertex 42.9668 26.5349 62
    endloop
  endfacet
  facet normal 0 0 1
    outer loop
      vertex 40.7377 29.8444 62
      vertex 48.9852 12.25 62
      vertex 41.885 28.2117 62
    endloop
  endfacet
  facet normal 0 0 1
    outer loop
      vertex 39.5269 31.4305 62
      vertex 48.9852 12.25 62
      vertex 40.7377 29.8444 62
    endloop
  endfacet
  facet normal 0 0 1
    outer loop
      vertex 38.2543 32.9675 62
      vertex 48.9852 12.25 62
      vertex 39.5269 31.4305 62
    endloop
  endfacet
  facet normal 0 0 1
    outer loop
      vertex 36.922 34.4531 62
      vertex 48.9852 12.25 62
      vertex 38.2543 32.9675 62
    endloop
  endfacet
  facet normal 0 0 1
    outer loop
      vertex 35.5321 35.8848 62
      vertex 48.9852 12.25 62
      vertex 36.922 34.4531 62
    endloop
  endfacet
  facet normal 0 0 1
    outer loop
      vertex 34.0866 37.2606 62
      vertex 48.9852 12.25 62
      vertex 35.5321 35.8848 62
    endloop
  endfacet
  facet normal 0 0 1
    outer loop
      vertex 32.588 38.5781 62
      vertex 48.9852 12.25 62
      vertex 34.0866 37.2606 62
    endloop
  endfacet
  facet normal 0 0 1
    outer loop
      vertex 31.0385 39.8355 62
      vertex 48.9852 12.25 62
      vertex 32.588 38.5781 62
    endloop
  endfacet
  facet normal 0 0 1
    outer loop
      vertex 29.4405 41.0306 62
      vertex 48.9852 12.25 62
      vertex 31.0385 39.8355 62
    endloop
  endfacet
  facet normal 0 0 1
    outer loop
      vertex 27.7965 42.1616 62
      vertex 48.9852 12.25 62
      vertex 29.4405 41.0306 62
    endloop
  endfacet
  facet normal 0 0 1
    outer loop
      vertex 26.1091 43.2269 62
      vertex 48.9852 12.25 62
      vertex 27.7965 42.1616 62
    endloop
  endfacet
  facet normal 0 0 1
    outer loop
      vertex 24.381 44.2246 62
      vertex 48.9852 12.25 62
      vertex 26.1091 43.2269 62
    endloop
  endfacet
  facet normal 0 0 1
    outer loop
      vertex 22.6148 45.1533 62
      vertex 48.9852 12.25 62
      vertex 24.381 44.2246 62
    endloop
  endfacet
  facet normal 0 0 1
    outer loop
      vertex 20.8133 46.0115 62
      vertex 48.9852 12.25 62
      vertex 22.6148 45.1533 62
    endloop
  endfacet
  facet normal 0 0 1
    outer loop
      vertex 18.9793 46.7978 62
      vertex 48.9852 12.25 62
      vertex 20.8133 46.0115 62
    endloop
  endfacet
  facet normal 0 0 1
    outer loop
      vertex 17.1157 47.5111 62
      vertex 48.9852 12.25 62
      vertex 18.9793 46.7978 62
    endloop
  endfacet
  facet normal 0 0 1
    outer loop
      vertex 15.2253 48.1502 62
      vertex 48.9852 12.25 62
      vertex 17.1157 47.5111 62
    endloop
  endfacet
  facet normal 0 0 1
    outer loop
      vertex 13.3112 48.7141 62
      vertex 48.9852 12.25 62
      vertex 15.2253 48.1502 62
    endloop
  endfacet
  facet normal 0 0 1
    outer loop
      vertex 11.3762 49.2019 62
      vertex 48.9852 12.25 62
      vertex 13.3112 48.7141 62
    endloop
  endfacet
  facet normal 0 0 1
    outer loop
      vertex 9.42355 49.613 62
      vertex 48.9852 12.25 62
      vertex 11.3762 49.2019 62
    endloop
  endfacet
  facet normal 0 0 1
    outer loop
      vertex 7.45615 49.9465 62
      vertex 48.9852 12.25 62
      vertex 9.42355 49.613 62
    endloop
  endfacet
  facet normal 0 0 1
    outer loop
      vertex 5.47711 50.2021 62
      vertex 48.9852 12.25 62
      vertex 7.45615 49.9465 62
    endloop
  endfacet
  facet normal 0 0 1
    outer loop
      vertex 3.48952 50.3793 62
      vertex 48.9852 12.25 62
      vertex 5.47711 50.2021 62
    endloop
  endfacet
  facet normal 0 0 1
    outer loop
      vertex 1.49648 50.4778 62
      vertex 48.9852 12.25 62
      vertex 3.48952 50.3793 62
    endloop
  endfacet
  facet normal 0 0 1
    outer loop
      vertex -0.498892 50.4975 62
      vertex 48.9852 12.25 62
      vertex 1.49648 50.4778 62
    endloop
  endfacet
  facet normal -0 0 1
    outer loop
      vertex -2.49349 50.4384 62
      vertex 48.9852 12.25 62
      vertex -0.498892 50.4975 62
    endloop
  endfacet
  facet normal -0 0 1
    outer loop
      vertex -4.48419 50.3005 62
      vertex 48.9852 12.25 62
      vertex -2.49349 50.4384 62
    endloop
  endfacet
  facet normal -0 0 1
    outer loop
      vertex -6.46789 50.0841 62
      vertex 48.9852 12.25 62
      vertex -4.48419 50.3005 62
    endloop
  endfacet
  facet normal -0 0 1
    outer loop
      vertex -8.4415 49.7895 62
      vertex 48.9852 12.25 62
      vertex -6.46789 50.0841 62
    endloop
  endfacet
  facet normal -0 0 1
    outer loop
      vertex -10.4019 49.4171 62
      vertex 48.9852 12.25 62
      vertex -8.4415 49.7895 62
    endloop
  endfacet
  facet normal -0 0 1
    outer loop
      vertex -12.3461 48.9676 62
      vertex 48.9852 12.25 62
      vertex -10.4019 49.4171 62
    endloop
  endfacet
  facet normal -0 0 1
    outer loop
      vertex -14.271 48.4416 62
      vertex 48.9852 12.25 62
      vertex -12.3461 48.9676 62
    endloop
  endfacet
  facet normal -0 0 1
    outer loop
      vertex -16.1736 47.84 62
      vertex 48.9852 12.25 62
      vertex -14.271 48.4416 62
    endloop
  endfacet
  facet normal -0 0 1
    outer loop
      vertex -18.051 47.1637 62
      vertex 48.9852 12.25 62
      vertex -16.1736 47.84 62
    endloop
  endfacet
  facet normal -0 0 1
    outer loop
      vertex -19.9002 46.4137 62
      vertex 48.9852 12.25 62
      vertex -18.051 47.1637 62
    endloop
  endfacet
  facet normal -0 0 1
    outer loop
      vertex -21.7183 45.5913 62
      vertex 48.9852 12.25 62
      vertex -19.9002 46.4137 62
    endloop
  endfacet
  facet normal -0 0 1
    outer loop
      vertex -23.5025 44.6977 62
      vertex 48.9852 12.25 62
      vertex -21.7183 45.5913 62
    endloop
  endfacet
  facet normal -0 0 1
    outer loop
      vertex -25.25 43.7343 62
      vertex 48.9852 12.25 62
      vertex -23.5025 44.6977 62
    endloop
  endfacet
  facet normal -0 0 1
    outer loop
      vertex -26.9581 42.7026 62
      vertex 48.9852 12.25 62
      vertex -25.25 43.7343 62
    endloop
  endfacet
  facet normal -0 0 1
    outer loop
      vertex -28.6241 41.6042 62
      vertex 48.9852 12.25 62
      vertex -26.9581 42.7026 62
    endloop
  endfacet
  facet normal -0 0 1
    outer loop
      vertex -30.2454 40.4409 62
      vertex 48.9852 12.25 62
      vertex -28.6241 41.6042 62
    endloop
  endfacet
  facet normal -0 0 1
    outer loop
      vertex -31.8194 39.2145 62
      vertex 48.9852 12.25 62
      vertex -30.2454 40.4409 62
    endloop
  endfacet
  facet normal -0 0 1
    outer loop
      vertex -33.3438 37.9268 62
      vertex 48.9852 12.25 62
      vertex -31.8194 39.2145 62
    endloop
  endfacet
  facet normal -0 0 1
    outer loop
      vertex -34.8162 36.5799 62
      vertex 48.9852 12.25 62
      vertex -33.3438 37.9268 62
    endloop
  endfacet
  facet normal -0 0 1
    outer loop
      vertex -36.2341 35.1758 62
      vertex 48.9852 12.25 62
      vertex -34.8162 36.5799 62
    endloop
  endfacet
  facet normal -0 0 1
    outer loop
      vertex -37.5955 33.7169 62
      vertex 48.9852 12.25 62
      vertex -36.2341 35.1758 62
    endloop
  endfacet
  facet normal -0 0 1
    outer loop
      vertex -38.8982 32.2053 62
      vertex 48.9852 12.25 62
      vertex -37.5955 33.7169 62
    endloop
  endfacet
  facet normal -0 0 1
    outer loop
      vertex -40.1401 30.6434 62
      vertex 48.9852 12.25 62
      vertex -38.8982 32.2053 62
    endloop
  endfacet
  facet normal -0 0 1
    outer loop
      vertex -41.3194 29.0337 62
      vertex 48.9852 12.25 62
      vertex -40.1401 30.6434 62
    endloop
  endfacet
  facet normal -0 0 1
    outer loop
      vertex -42.4342 27.3786 62
      vertex 48.9852 12.25 62
      vertex -41.3194 29.0337 62
    endloop
  endfacet
  facet normal -0 0 1
    outer loop
      vertex -43.4827 25.6808 62
      vertex 48.9852 12.25 62
      vertex -42.4342 27.3786 62
    endloop
  endfacet
  facet normal -0 0 1
    outer loop
      vertex -44.4633 23.9429 62
      vertex 48.9852 12.25 62
      vertex -43.4827 25.6808 62
    endloop
  endfacet
  facet normal -0 0 1
    outer loop
      vertex -45.3745 22.1676 62
      vertex 48.9852 12.25 62
      vertex -44.4633 23.9429 62
    endloop
  endfacet
  facet normal -0 0 1
    outer loop
      vertex -46.2149 20.3577 62
      vertex 48.9852 12.25 62
      vertex -45.3745 22.1676 62
    endloop
  endfacet
  facet normal -0 0 1
    outer loop
      vertex -46.983 18.516 62
      vertex 48.9852 12.25 62
      vertex -46.2149 20.3577 62
    endloop
  endfacet
  facet normal -0 0 1
    outer loop
      vertex -47.6779 16.6455 62
      vertex 48.9852 12.25 62
      vertex -46.983 18.516 62
    endloop
  endfacet
  facet normal -0 0 1
    outer loop
      vertex -48.2982 14.7489 62
      vertex 48.9852 12.25 62
      vertex -47.6779 16.6455 62
    endloop
  endfacet
  facet normal 0 0 1
    outer loop
      vertex -48.9832 12.25 62
      vertex -48.2982 14.7489 62
      vertex -48.8432 12.8293 62
    endloop
  endfacet
  facet normal 0 0 1
    outer loop
      vertex -48.2982 14.7489 62
      vertex -48.9832 12.25 62
      vertex 48.9852 12.25 62
    endloop
  endfacet
  facet normal 0 0 1
    outer loop
      vertex 48.9852 -12.25 62
      vertex 47.9974 -15.7002 62
      vertex 48.5802 -13.7918 62
    endloop
  endfacet
  facet normal 0 0 1
    outer loop
      vertex 48.9852 -12.25 62
      vertex 47.3397 -17.5842 62
      vertex 47.9974 -15.7002 62
    endloop
  endfacet
  facet normal 0 0 1
    outer loop
      vertex 48.9852 -12.25 62
      vertex 46.608 -19.4407 62
      vertex 47.3397 -17.5842 62
    endloop
  endfacet
  facet normal 0 0 1
    outer loop
      vertex 48.9852 -12.25 62
      vertex 45.8036 -21.2668 62
      vertex 46.608 -19.4407 62
    endloop
  endfacet
  facet normal 0 0 1
    outer loop
      vertex 48.9852 -12.25 62
      vertex 44.9277 -23.0598 62
      vertex 45.8036 -21.2668 62
    endloop
  endfacet
  facet normal 0 0 1
    outer loop
      vertex 48.9852 -12.25 62
      vertex 43.9816 -24.8167 62
      vertex 44.9277 -23.0598 62
    endloop
  endfacet
  facet normal 0 0 1
    outer loop
      vertex 48.9852 -12.25 62
      vertex 42.9668 -26.5349 62
      vertex 43.9816 -24.8167 62
    endloop
  endfacet
  facet normal 0 0 1
    outer loop
      vertex 48.9852 -12.25 62
      vertex 41.885 -28.2117 62
      vertex 42.9668 -26.5349 62
    endloop
  endfacet
  facet normal 0 0 1
    outer loop
      vertex 48.9852 -12.25 62
      vertex 40.7377 -29.8444 62
      vertex 41.885 -28.2117 62
    endloop
  endfacet
  facet normal 0 0 1
    outer loop
      vertex 48.9852 -12.25 62
      vertex 39.5269 -31.4305 62
      vertex 40.7377 -29.8444 62
    endloop
  endfacet
  facet normal 0 0 1
    outer loop
      vertex 48.9852 -12.25 62
      vertex 38.2543 -32.9675 62
      vertex 39.5269 -31.4305 62
    endloop
  endfacet
  facet normal 0 0 1
    outer loop
      vertex 48.9852 -12.25 62
      vertex 36.922 -34.4531 62
      vertex 38.2543 -32.9675 62
    endloop
  endfacet
  facet normal 0 0 1
    outer loop
      vertex 48.9852 -12.25 62
      vertex 35.5321 -35.8848 62
      vertex 36.922 -34.4531 62
    endloop
  endfacet
  facet normal 0 0 1
    outer loop
      vertex 48.9852 -12.25 62
      vertex 34.0866 -37.2606 62
      vertex 35.5321 -35.8848 62
    endloop
  endfacet
  facet normal 0 0 1
    outer loop
      vertex 48.9852 -12.25 62
      vertex 32.588 -38.5781 62
      vertex 34.0866 -37.2606 62
    endloop
  endfacet
  facet normal 0 0 1
    outer loop
      vertex 48.9852 -12.25 62
      vertex 31.0385 -39.8355 62
      vertex 32.588 -38.5781 62
    endloop
  endfacet
  facet normal 0 0 1
    outer loop
      vertex 48.9852 -12.25 62
      vertex 29.4405 -41.0306 62
      vertex 31.0385 -39.8355 62
    endloop
  endfacet
  facet normal 0 0 1
    outer loop
      vertex 48.9852 -12.25 62
      vertex 27.7965 -42.1616 62
      vertex 29.4405 -41.0306 62
    endloop
  endfacet
  facet normal 0 0 1
    outer loop
      vertex 48.9852 -12.25 62
      vertex 26.1091 -43.2269 62
      vertex 27.7965 -42.1616 62
    endloop
  endfacet
  facet normal 0 0 1
    outer loop
      vertex 48.9852 -12.25 62
      vertex 24.381 -44.2246 62
      vertex 26.1091 -43.2269 62
    endloop
  endfacet
  facet normal 0 0 1
    outer loop
      vertex 48.9852 -12.25 62
      vertex 22.6148 -45.1533 62
      vertex 24.381 -44.2246 62
    endloop
  endfacet
  facet normal 0 0 1
    outer loop
      vertex 48.9852 -12.25 62
      vertex 20.8133 -46.0115 62
      vertex 22.6148 -45.1533 62
    endloop
  endfacet
  facet normal 0 0 1
    outer loop
      vertex 48.9852 -12.25 62
      vertex 18.9793 -46.7978 62
      vertex 20.8133 -46.0115 62
    endloop
  endfacet
  facet normal 0 0 1
    outer loop
      vertex 48.9852 -12.25 62
      vertex 17.1157 -47.5111 62
      vertex 18.9793 -46.7978 62
    endloop
  endfacet
  facet normal 0 0 1
    outer loop
      vertex 48.9852 -12.25 62
      vertex 15.2253 -48.1502 62
      vertex 17.1157 -47.5111 62
    endloop
  endfacet
  facet normal 0 0 1
    outer loop
      vertex 48.9852 -12.25 62
      vertex 13.3112 -48.7141 62
      vertex 15.2253 -48.1502 62
    endloop
  endfacet
  facet normal 0 0 1
    outer loop
      vertex 48.9852 -12.25 62
      vertex 11.3762 -49.2019 62
      vertex 13.3112 -48.7141 62
    endloop
  endfacet
  facet normal 0 0 1
    outer loop
      vertex 48.9852 -12.25 62
      vertex 9.42355 -49.613 62
      vertex 11.3762 -49.2019 62
    endloop
  endfacet
  facet normal 0 0 1
    outer loop
      vertex 48.9852 -12.25 62
      vertex 7.45615 -49.9465 62
      vertex 9.42355 -49.613 62
    endloop
  endfacet
  facet normal 0 0 1
    outer loop
      vertex 48.9852 -12.25 62
      vertex 5.47711 -50.2021 62
      vertex 7.45615 -49.9465 62
    endloop
  endfacet
  facet normal 0 0 1
    outer loop
      vertex 48.9852 -12.25 62
      vertex 3.48952 -50.3793 62
      vertex 5.47711 -50.2021 62
    endloop
  endfacet
  facet normal 0 0 1
    outer loop
      vertex 48.9852 -12.25 62
      vertex 1.49648 -50.4778 62
      vertex 3.48952 -50.3793 62
    endloop
  endfacet
  facet normal 0 0 1
    outer loop
      vertex 48.9852 -12.25 62
      vertex -0.498892 -50.4975 62
      vertex 1.49648 -50.4778 62
    endloop
  endfacet
  facet normal 0 0 1
    outer loop
      vertex 48.9852 -12.25 62
      vertex -2.49349 -50.4384 62
      vertex -0.498892 -50.4975 62
    endloop
  endfacet
  facet normal 0 0 1
    outer loop
      vertex 48.9852 -12.25 62
      vertex -4.48419 -50.3005 62
      vertex -2.49349 -50.4384 62
    endloop
  endfacet
  facet normal 0 0 1
    outer loop
      vertex 48.9852 -12.25 62
      vertex -6.46789 -50.0841 62
      vertex -4.48419 -50.3005 62
    endloop
  endfacet
  facet normal 0 0 1
    outer loop
      vertex 48.9852 -12.25 62
      vertex -8.4415 -49.7895 62
      vertex -6.46789 -50.0841 62
    endloop
  endfacet
  facet normal 0 0 1
    outer loop
      vertex 48.9852 -12.25 62
      vertex -10.4019 -49.4171 62
      vertex -8.4415 -49.7895 62
    endloop
  endfacet
  facet normal 0 0 1
    outer loop
      vertex 48.9852 -12.25 62
      vertex -12.3461 -48.9676 62
      vertex -10.4019 -49.4171 62
    endloop
  endfacet
  facet normal 0 0 1
    outer loop
      vertex 48.9852 -12.25 62
      vertex -14.271 -48.4416 62
      vertex -12.3461 -48.9676 62
    endloop
  endfacet
  facet normal 0 0 1
    outer loop
      vertex 48.9852 -12.25 62
      vertex -16.1736 -47.84 62
      vertex -14.271 -48.4416 62
    endloop
  endfacet
  facet normal 0 0 1
    outer loop
      vertex 48.9852 -12.25 62
      vertex -18.051 -47.1637 62
      vertex -16.1736 -47.84 62
    endloop
  endfacet
  facet normal 0 0 1
    outer loop
      vertex 48.9852 -12.25 62
      vertex -19.9002 -46.4137 62
      vertex -18.051 -47.1637 62
    endloop
  endfacet
  facet normal 0 0 1
    outer loop
      vertex 48.9852 -12.25 62
      vertex -21.7183 -45.5913 62
      vertex -19.9002 -46.4137 62
    endloop
  endfacet
  facet normal 0 0 1
    outer loop
      vertex 48.9852 -12.25 62
      vertex -23.5025 -44.6977 62
      vertex -21.7183 -45.5913 62
    endloop
  endfacet
  facet normal 0 0 1
    outer loop
      vertex 48.9852 -12.25 62
      vertex -25.25 -43.7343 62
      vertex -23.5025 -44.6977 62
    endloop
  endfacet
  facet normal 0 0 1
    outer loop
      vertex 48.9852 -12.25 62
      vertex -26.9581 -42.7026 62
      vertex -25.25 -43.7343 62
    endloop
  endfacet
  facet normal 0 0 1
    outer loop
      vertex 48.9852 -12.25 62
      vertex -28.6241 -41.6042 62
      vertex -26.9581 -42.7026 62
    endloop
  endfacet
  facet normal 0 0 1
    outer loop
      vertex 48.9852 -12.25 62
      vertex -30.2454 -40.4409 62
      vertex -28.6241 -41.6042 62
    endloop
  endfacet
  facet normal 0 0 1
    outer loop
      vertex 48.9852 -12.25 62
      vertex -31.8194 -39.2145 62
      vertex -30.2454 -40.4409 62
    endloop
  endfacet
  facet normal 0 0 1
    outer loop
      vertex 48.9852 -12.25 62
      vertex -33.3438 -37.9268 62
      vertex -31.8194 -39.2145 62
    endloop
  endfacet
  facet normal 0 0 1
    outer loop
      vertex 48.9852 -12.25 62
      vertex -34.8162 -36.5799 62
      vertex -33.3438 -37.9268 62
    endloop
  endfacet
  facet normal 0 0 1
    outer loop
      vertex 48.9852 -12.25 62
      vertex -36.2341 -35.1758 62
      vertex -34.8162 -36.5799 62
    endloop
  endfacet
  facet normal 0 0 1
    outer loop
      vertex 48.9852 -12.25 62
      vertex -37.5955 -33.7169 62
      vertex -36.2341 -35.1758 62
    endloop
  endfacet
  facet normal 0 0 1
    outer loop
      vertex 48.9852 -12.25 62
      vertex -38.8982 -32.2053 62
      vertex -37.5955 -33.7169 62
    endloop
  endfacet
  facet normal 0 0 1
    outer loop
      vertex 48.9852 -12.25 62
      vertex -40.1401 -30.6434 62
      vertex -38.8982 -32.2053 62
    endloop
  endfacet
  facet normal 0 0 1
    outer loop
      vertex 48.9852 -12.25 62
      vertex -41.3194 -29.0337 62
      vertex -40.1401 -30.6434 62
    endloop
  endfacet
  facet normal 0 0 1
    outer loop
      vertex 48.9852 -12.25 62
      vertex -42.4342 -27.3786 62
      vertex -41.3194 -29.0337 62
    endloop
  endfacet
  facet normal 0 0 1
    outer loop
      vertex 48.9852 -12.25 62
      vertex -43.4827 -25.6808 62
      vertex -42.4342 -27.3786 62
    endloop
  endfacet
  facet normal 0 0 1
    outer loop
      vertex 48.9852 -12.25 62
      vertex -44.4633 -23.9429 62
      vertex -43.4827 -25.6808 62
    endloop
  endfacet
  facet normal 0 0 1
    outer loop
      vertex 48.9852 -12.25 62
      vertex -45.3745 -22.1676 62
      vertex -44.4633 -23.9429 62
    endloop
  endfacet
  facet normal 0 0 1
    outer loop
      vertex 48.9852 -12.25 62
      vertex -46.2149 -20.3577 62
      vertex -45.3745 -22.1676 62
    endloop
  endfacet
  facet normal 0 0 1
    outer loop
      vertex 48.9852 -12.25 62
      vertex -46.983 -18.516 62
      vertex -46.2149 -20.3577 62
    endloop
  endfacet
  facet normal 0 0 1
    outer loop
      vertex 48.9852 -12.25 62
      vertex -47.6779 -16.6455 62
      vertex -46.983 -18.516 62
    endloop
  endfacet
  facet normal 0 0 1
    outer loop
      vertex 48.9852 -12.25 62
      vertex -48.2982 -14.7489 62
      vertex -47.6779 -16.6455 62
    endloop
  endfacet
  facet normal -0 0 1
    outer loop
      vertex -48.9832 -12.25 62
      vertex -48.2982 -14.7489 62
      vertex 48.9852 -12.25 62
    endloop
  endfacet
  facet normal 0 0 1
    outer loop
      vertex -48.2982 -14.7489 62
      vertex -48.9832 -12.25 62
      vertex -48.8432 -12.8293 62
    endloop
  endfacet
  facet normal -0.645306 0.763924 0
    outer loop
      vertex -31.8194 39.2145 0
      vertex -33.3438 37.9268 62
      vertex -31.8194 39.2145 62
    endloop
  endfacet
  facet normal -0.645306 0.763924 0
    outer loop
      vertex -33.3438 37.9268 62
      vertex -31.8194 39.2145 0
      vertex -33.3438 37.9268 0
    endloop
  endfacet
  facet normal -0.517013 0.855978 0
    outer loop
      vertex -25.25 43.7343 0
      vertex -26.9581 42.7026 62
      vertex -25.25 43.7343 62
    endloop
  endfacet
  facet normal -0.517013 0.855978 0
    outer loop
      vertex -26.9581 42.7026 62
      vertex -25.25 43.7343 0
      vertex -26.9581 42.7026 0
    endloop
  endfacet
  facet normal -0.447818 0.894125 0
    outer loop
      vertex -21.7183 45.5913 0
      vertex -23.5025 44.6977 62
      vertex -21.7183 45.5913 62
    endloop
  endfacet
  facet normal -0.447818 0.894125 0
    outer loop
      vertex -23.5025 44.6977 62
      vertex -21.7183 45.5913 0
      vertex -23.5025 44.6977 0
    endloop
  endfacet
  facet normal -0.550426 0.834884 0
    outer loop
      vertex -26.9581 42.7026 0
      vertex -28.6241 41.6042 62
      vertex -26.9581 42.7026 62
    endloop
  endfacet
  facet normal -0.550426 0.834884 0
    outer loop
      vertex -28.6241 41.6042 62
      vertex -26.9581 42.7026 0
      vertex -28.6241 41.6042 0
    endloop
  endfacet
  facet normal -0.614623 0.788821 0
    outer loop
      vertex -30.2454 40.4409 0
      vertex -31.8194 39.2145 62
      vertex -30.2454 40.4409 62
    endloop
  endfacet
  facet normal -0.614623 0.788821 0
    outer loop
      vertex -31.8194 39.2145 62
      vertex -30.2454 40.4409 0
      vertex -31.8194 39.2145 0
    endloop
  endfacet
  facet normal -0.674983 0.737833 0
    outer loop
      vertex -33.3438 37.9268 0
      vertex -34.8162 36.5799 62
      vertex -33.3438 37.9268 62
    endloop
  endfacet
  facet normal -0.674983 0.737833 0
    outer loop
      vertex -34.8162 36.5799 62
      vertex -33.3438 37.9268 0
      vertex -34.8162 36.5799 0
    endloop
  endfacet
  facet normal -0.338925 0.940814 0
    outer loop
      vertex -16.1736 47.84 0
      vertex -18.051 47.1637 62
      vertex -16.1736 47.84 62
    endloop
  endfacet
  facet normal -0.338925 0.940814 0
    outer loop
      vertex -18.051 47.1637 62
      vertex -16.1736 47.84 0
      vertex -18.051 47.1637 0
    endloop
  endfacet
  facet normal -0.263587 0.964635 0
    outer loop
      vertex -12.3461 48.9676 0
      vertex -14.271 48.4416 62
      vertex -12.3461 48.9676 62
    endloop
  endfacet
  facet normal -0.263587 0.964635 0
    outer loop
      vertex -14.271 48.4416 62
      vertex -12.3461 48.9676 0
      vertex -14.271 48.4416 0
    endloop
  endfacet
  facet normal -0.375827 0.92669 0
    outer loop
      vertex -18.051 47.1637 0
      vertex -19.9002 46.4137 62
      vertex -18.051 47.1637 62
    endloop
  endfacet
  facet normal -0.375827 0.92669 0
    outer loop
      vertex -19.9002 46.4137 62
      vertex -18.051 47.1637 0
      vertex -19.9002 46.4137 0
    endloop
  endfacet
  facet normal -0.186604 0.982435 0
    outer loop
      vertex -8.4415 49.7895 0
      vertex -10.4019 49.4171 62
      vertex -8.4415 49.7895 62
    endloop
  endfacet
  facet normal -0.186604 0.982435 0
    outer loop
      vertex -10.4019 49.4171 62
      vertex -8.4415 49.7895 0
      vertex -10.4019 49.4171 0
    endloop
  endfacet
  facet normal -0.108457 0.994101 0
    outer loop
      vertex -4.48419 50.3005 0
      vertex -6.46789 50.0841 62
      vertex -4.48419 50.3005 62
    endloop
  endfacet
  facet normal -0.108457 0.994101 0
    outer loop
      vertex -6.46789 50.0841 62
      vertex -4.48419 50.3005 0
      vertex -6.46789 50.0841 0
    endloop
  endfacet
  facet normal 0.930357 -0.366654 0
    outer loop
      vertex 46.608 -19.4407 62
      vertex 47.3397 -17.5842 0
      vertex 47.3397 -17.5842 62
    endloop
  endfacet
  facet normal 0.930357 -0.366654 0
    outer loop
      vertex 47.3397 -17.5842 0
      vertex 46.608 -19.4407 62
      vertex 46.608 -19.4407 0
    endloop
  endfacet
  facet normal 0.744466 -0.66766 0
    outer loop
      vertex 36.922 -34.4531 62
      vertex 38.2543 -32.9675 0
      vertex 38.2543 -32.9675 62
    endloop
  endfacet
  facet normal 0.744466 -0.66766 0
    outer loop
      vertex 38.2543 -32.9675 0
      vertex 36.922 -34.4531 62
      vertex 36.922 -34.4531 0
    endloop
  endfacet
  facet normal 0.430066 -0.902798 0
    outer loop
      vertex 20.8133 -46.0115 0
      vertex 22.6148 -45.1533 62
      vertex 20.8133 -46.0115 62
    endloop
  endfacet
  facet normal 0.430066 -0.902798 0
    outer loop
      vertex 22.6148 -45.1533 62
      vertex 20.8133 -46.0115 0
      vertex 22.6148 -45.1533 0
    endloop
  endfacet
  facet normal -0.757511 -0.652822 0
    outer loop
      vertex -37.5955 -33.7169 0
      vertex -38.8982 -32.2053 62
      vertex -38.8982 -32.2053 0
    endloop
  endfacet
  facet normal -0.757511 -0.652822 0
    outer loop
      vertex -38.8982 -32.2053 62
      vertex -37.5955 -33.7169 0
      vertex -37.5955 -33.7169 62
    endloop
  endfacet
  facet normal -0.972023 -0.234884 0
    outer loop
      vertex -49.3119 -10.8896 0
      vertex -48.9832 -12.25 34.0525
      vertex -49.3119 -10.8896 34.1989
    endloop
  endfacet
  facet normal -0.972023 -0.234886 -6.83735e-08
    outer loop
      vertex -48.8432 -12.8293 0
      vertex -48.9832 -12.25 34.0525
      vertex -49.3119 -10.8896 0
    endloop
  endfacet
  facet normal -0.972022 -0.234889 -0
    outer loop
      vertex -48.8432 -12.8293 62
      vertex -48.9832 -12.25 34.0525
      vertex -48.8432 -12.8293 0
    endloop
  endfacet
  facet normal -0.972022 -0.234889 0
    outer loop
      vertex -48.9832 -12.25 34.0525
      vertex -48.8432 -12.8293 62
      vertex -48.9832 -12.25 62
    endloop
  endfacet
  facet normal -0.93742 -0.3482 0
    outer loop
      vertex -46.983 -18.516 0
      vertex -47.6779 -16.6455 62
      vertex -47.6779 -16.6455 0
    endloop
  endfacet
  facet normal -0.93742 -0.3482 0
    outer loop
      vertex -47.6779 -16.6455 62
      vertex -46.983 -18.516 0
      vertex -46.983 -18.516 62
    endloop
  endfacet
  facet normal 0 0 -1
    outer loop
      vertex 27.5 -12.25 0
      vertex 48.5802 -13.7918 0
      vertex 47.9974 -15.7002 0
    endloop
  endfacet
  facet normal 0 0 -1
    outer loop
      vertex 27.5 -12.25 0
      vertex 47.9974 -15.7002 0
      vertex 47.3397 -17.5842 0
    endloop
  endfacet
  facet normal 0 0 -1
    outer loop
      vertex 27.5 -12.25 0
      vertex 47.3397 -17.5842 0
      vertex 46.608 -19.4407 0
    endloop
  endfacet
  facet normal 0 0 -1
    outer loop
      vertex 27.5 -12.25 0
      vertex 46.608 -19.4407 0
      vertex 45.8036 -21.2668 0
    endloop
  endfacet
  facet normal 0 0 -1
    outer loop
      vertex 27.5 -12.25 0
      vertex 45.8036 -21.2668 0
      vertex 44.9277 -23.0598 0
    endloop
  endfacet
  facet normal 0 0 -1
    outer loop
      vertex 27.5 -12.25 0
      vertex 44.9277 -23.0598 0
      vertex 43.9816 -24.8167 0
    endloop
  endfacet
  facet normal 0 0 -1
    outer loop
      vertex 27.5 -12.25 0
      vertex 43.9816 -24.8167 0
      vertex 42.9668 -26.5349 0
    endloop
  endfacet
  facet normal 0 0 -1
    outer loop
      vertex 27.5 -12.25 0
      vertex 42.9668 -26.5349 0
      vertex 41.885 -28.2117 0
    endloop
  endfacet
  facet normal 0 0 -1
    outer loop
      vertex 27.5 -12.25 0
      vertex 41.885 -28.2117 0
      vertex 40.7377 -29.8444 0
    endloop
  endfacet
  facet normal 0 0 -1
    outer loop
      vertex 27.5 -12.25 0
      vertex 40.7377 -29.8444 0
      vertex 39.5269 -31.4305 0
    endloop
  endfacet
  facet normal 0 0 -1
    outer loop
      vertex 27.5 -12.25 0
      vertex 39.5269 -31.4305 0
      vertex 38.2543 -32.9675 0
    endloop
  endfacet
  facet normal 0 0 -1
    outer loop
      vertex 27.5 -12.25 0
      vertex 38.2543 -32.9675 0
      vertex 36.922 -34.4531 0
    endloop
  endfacet
  facet normal 0 0 -1
    outer loop
      vertex 27.5 -12.25 0
      vertex 36.922 -34.4531 0
      vertex 35.5321 -35.8848 0
    endloop
  endfacet
  facet normal 0 0 -1
    outer loop
      vertex 27.5 -12.25 0
      vertex 35.5321 -35.8848 0
      vertex 34.0866 -37.2606 0
    endloop
  endfacet
  facet normal 0 0 -1
    outer loop
      vertex 27.5 -12.25 0
      vertex 34.0866 -37.2606 0
      vertex 32.588 -38.5781 0
    endloop
  endfacet
  facet normal 0 0 -1
    outer loop
      vertex 27.5 -12.25 0
      vertex 32.588 -38.5781 0
      vertex 31.0385 -39.8355 0
    endloop
  endfacet
  facet normal 0 0 -1
    outer loop
      vertex 27.5 -12.25 0
      vertex 31.0385 -39.8355 0
      vertex 29.4405 -41.0306 0
    endloop
  endfacet
  facet normal 0 0 -1
    outer loop
      vertex 27.5 -12.25 0
      vertex 29.4405 -41.0306 0
      vertex 27.7965 -42.1616 0
    endloop
  endfacet
  facet normal 0 0 -1
    outer loop
      vertex 48.5802 -13.7918 0
      vertex 27.5 -12.25 0
      vertex 48.9852 -12.25 0
    endloop
  endfacet
  facet normal 0 0 -1
    outer loop
      vertex 24.381 -44.2246 0
      vertex 27.5 -12.25 0
      vertex 26.1091 -43.2269 0
    endloop
  endfacet
  facet normal 0 0 -1
    outer loop
      vertex 26.1091 -43.2269 0
      vertex 27.5 -12.25 0
      vertex 27.7965 -42.1616 0
    endloop
  endfacet
  facet normal 0 0 -1
    outer loop
      vertex 27.5 12.25 0
      vertex 48.5802 13.7918 0
      vertex 48.9852 12.25 0
    endloop
  endfacet
  facet normal -0 0 -1
    outer loop
      vertex 48.5802 13.7918 0
      vertex 27.5 12.25 0
      vertex 47.9974 15.7002 0
    endloop
  endfacet
  facet normal -0 0 -1
    outer loop
      vertex 47.9974 15.7002 0
      vertex 27.5 12.25 0
      vertex 47.3397 17.5842 0
    endloop
  endfacet
  facet normal -0 0 -1
    outer loop
      vertex 47.3397 17.5842 0
      vertex 27.5 12.25 0
      vertex 46.608 19.4407 0
    endloop
  endfacet
  facet normal -0 0 -1
    outer loop
      vertex 46.608 19.4407 0
      vertex 27.5 12.25 0
      vertex 45.8036 21.2668 0
    endloop
  endfacet
  facet normal -0 0 -1
    outer loop
      vertex 45.8036 21.2668 0
      vertex 27.5 12.25 0
      vertex 44.9277 23.0598 0
    endloop
  endfacet
  facet normal -0 0 -1
    outer loop
      vertex 44.9277 23.0598 0
      vertex 27.5 12.25 0
      vertex 43.9816 24.8167 0
    endloop
  endfacet
  facet normal -0 0 -1
    outer loop
      vertex 43.9816 24.8167 0
      vertex 27.5 12.25 0
      vertex 42.9668 26.5349 0
    endloop
  endfacet
  facet normal -0 0 -1
    outer loop
      vertex 42.9668 26.5349 0
      vertex 27.5 12.25 0
      vertex 41.885 28.2117 0
    endloop
  endfacet
  facet normal -0 0 -1
    outer loop
      vertex 41.885 28.2117 0
      vertex 27.5 12.25 0
      vertex 40.7377 29.8444 0
    endloop
  endfacet
  facet normal -0 0 -1
    outer loop
      vertex 40.7377 29.8444 0
      vertex 27.5 12.25 0
      vertex 39.5269 31.4305 0
    endloop
  endfacet
  facet normal -0 0 -1
    outer loop
      vertex 39.5269 31.4305 0
      vertex 27.5 12.25 0
      vertex 38.2543 32.9675 0
    endloop
  endfacet
  facet normal -0 0 -1
    outer loop
      vertex 38.2543 32.9675 0
      vertex 27.5 12.25 0
      vertex 36.922 34.4531 0
    endloop
  endfacet
  facet normal -0 0 -1
    outer loop
      vertex 36.922 34.4531 0
      vertex 27.5 12.25 0
      vertex 35.5321 35.8848 0
    endloop
  endfacet
  facet normal -0 0 -1
    outer loop
      vertex 35.5321 35.8848 0
      vertex 27.5 12.25 0
      vertex 34.0866 37.2606 0
    endloop
  endfacet
  facet normal -0 0 -1
    outer loop
      vertex 34.0866 37.2606 0
      vertex 27.5 12.25 0
      vertex 32.588 38.5781 0
    endloop
  endfacet
  facet normal -0 0 -1
    outer loop
      vertex 32.588 38.5781 0
      vertex 27.5 12.25 0
      vertex 31.0385 39.8355 0
    endloop
  endfacet
  facet normal -0 0 -1
    outer loop
      vertex 31.0385 39.8355 0
      vertex 27.5 12.25 0
      vertex 29.4405 41.0306 0
    endloop
  endfacet
  facet normal -0 0 -1
    outer loop
      vertex 29.4405 41.0306 0
      vertex 27.5 12.25 0
      vertex 27.7965 42.1616 0
    endloop
  endfacet
  facet normal 0 0 -1
    outer loop
      vertex 22.6148 -45.1533 0
      vertex 27.5 -12.25 0
      vertex 24.381 -44.2246 0
    endloop
  endfacet
  facet normal 0 0 -1
    outer loop
      vertex 27.5 12.25 0
      vertex 26.1091 43.2269 0
      vertex 27.7965 42.1616 0
    endloop
  endfacet
  facet normal 0 0 -1
    outer loop
      vertex 20.8133 -46.0115 0
      vertex 27.5 -12.25 0
      vertex 22.6148 -45.1533 0
    endloop
  endfacet
  facet normal 0 0 -1
    outer loop
      vertex 27.5 12.25 0
      vertex 24.381 44.2246 0
      vertex 26.1091 43.2269 0
    endloop
  endfacet
  facet normal 0 0 -1
    outer loop
      vertex 18.9793 -46.7978 0
      vertex 27.5 -12.25 0
      vertex 20.8133 -46.0115 0
    endloop
  endfacet
  facet normal 0 0 -1
    outer loop
      vertex 27.5 12.25 0
      vertex 22.6148 45.1533 0
      vertex 24.381 44.2246 0
    endloop
  endfacet
  facet normal 0 0 -1
    outer loop
      vertex 17.1157 -47.5111 0
      vertex 27.5 -12.25 0
      vertex 18.9793 -46.7978 0
    endloop
  endfacet
  facet normal 0 0 -1
    outer loop
      vertex 27.5 12.25 0
      vertex 20.8133 46.0115 0
      vertex 22.6148 45.1533 0
    endloop
  endfacet
  facet normal 0 0 -1
    outer loop
      vertex 15.2253 -48.1502 0
      vertex 27.5 -12.25 0
      vertex 17.1157 -47.5111 0
    endloop
  endfacet
  facet normal 0 0 -1
    outer loop
      vertex 27.5 12.25 0
      vertex 18.9793 46.7978 0
      vertex 20.8133 46.0115 0
    endloop
  endfacet
  facet normal 0 0 -1
    outer loop
      vertex 13.3112 -48.7141 0
      vertex 27.5 -12.25 0
      vertex 15.2253 -48.1502 0
    endloop
  endfacet
  facet normal 0 0 -1
    outer loop
      vertex 27.5 12.25 0
      vertex 17.1157 47.5111 0
      vertex 18.9793 46.7978 0
    endloop
  endfacet
  facet normal 0 0 -1
    outer loop
      vertex 11.3762 -49.2019 0
      vertex 27.5 -12.25 0
      vertex 13.3112 -48.7141 0
    endloop
  endfacet
  facet normal 0 0 -1
    outer loop
      vertex 27.5 12.25 0
      vertex 15.2253 48.1502 0
      vertex 17.1157 47.5111 0
    endloop
  endfacet
  facet normal 0 0 -1
    outer loop
      vertex 9.42355 -49.613 0
      vertex 27.5 -12.25 0
      vertex 11.3762 -49.2019 0
    endloop
  endfacet
  facet normal 0 0 -1
    outer loop
      vertex 27.5 12.25 0
      vertex 13.3112 48.7141 0
      vertex 15.2253 48.1502 0
    endloop
  endfacet
  facet normal 0 0 -1
    outer loop
      vertex 7.45615 -49.9465 0
      vertex 27.5 -12.25 0
      vertex 9.42355 -49.613 0
    endloop
  endfacet
  facet normal 0 0 -1
    outer loop
      vertex 27.5 12.25 0
      vertex 11.3762 49.2019 0
      vertex 13.3112 48.7141 0
    endloop
  endfacet
  facet normal 0 0 -1
    outer loop
      vertex 5.47711 -50.2021 0
      vertex 27.5 -12.25 0
      vertex 7.45615 -49.9465 0
    endloop
  endfacet
  facet normal 0 0 -1
    outer loop
      vertex 27.5 12.25 0
      vertex 9.42355 49.613 0
      vertex 11.3762 49.2019 0
    endloop
  endfacet
  facet normal 0 0 -1
    outer loop
      vertex 3.48952 -50.3793 0
      vertex 27.5 -12.25 0
      vertex 5.47711 -50.2021 0
    endloop
  endfacet
  facet normal 0 0 -1
    outer loop
      vertex 27.5 12.25 0
      vertex 7.45615 49.9465 0
      vertex 9.42355 49.613 0
    endloop
  endfacet
  facet normal 0 0 -1
    outer loop
      vertex 1.49648 -50.4778 0
      vertex 27.5 -12.25 0
      vertex 3.48952 -50.3793 0
    endloop
  endfacet
  facet normal 0 0 -1
    outer loop
      vertex 27.5 12.25 0
      vertex 5.47711 50.2021 0
      vertex 7.45615 49.9465 0
    endloop
  endfacet
  facet normal 0 0 -1
    outer loop
      vertex -0.498892 -50.4975 0
      vertex 27.5 -12.25 0
      vertex 1.49648 -50.4778 0
    endloop
  endfacet
  facet normal 0 0 -1
    outer loop
      vertex 27.5 12.25 0
      vertex 3.48952 50.3793 0
      vertex 5.47711 50.2021 0
    endloop
  endfacet
  facet normal 0 0 -1
    outer loop
      vertex -2.49349 -50.4384 0
      vertex 27.5 -12.25 0
      vertex -0.498892 -50.4975 0
    endloop
  endfacet
  facet normal 0 0 -1
    outer loop
      vertex 27.5 12.25 0
      vertex 1.49648 50.4778 0
      vertex 3.48952 50.3793 0
    endloop
  endfacet
  facet normal 0 0 -1
    outer loop
      vertex -4.48419 -50.3005 0
      vertex 27.5 -12.25 0
      vertex -2.49349 -50.4384 0
    endloop
  endfacet
  facet normal 0 0 -1
    outer loop
      vertex 27.5 12.25 0
      vertex -0.498892 50.4975 0
      vertex 1.49648 50.4778 0
    endloop
  endfacet
  facet normal 0 0 -1
    outer loop
      vertex -6.46789 -50.0841 0
      vertex 27.5 -12.25 0
      vertex -4.48419 -50.3005 0
    endloop
  endfacet
  facet normal 0 0 -1
    outer loop
      vertex 27.5 12.25 0
      vertex -2.49349 50.4384 0
      vertex -0.498892 50.4975 0
    endloop
  endfacet
  facet normal 0 0 -1
    outer loop
      vertex -8.4415 -49.7895 0
      vertex 27.5 -12.25 0
      vertex -6.46789 -50.0841 0
    endloop
  endfacet
  facet normal 0 0 -1
    outer loop
      vertex 27.5 12.25 0
      vertex -4.48419 50.3005 0
      vertex -2.49349 50.4384 0
    endloop
  endfacet
  facet normal 0 0 -1
    outer loop
      vertex -10.4019 -49.4171 0
      vertex 27.5 -12.25 0
      vertex -8.4415 -49.7895 0
    endloop
  endfacet
  facet normal 0 0 -1
    outer loop
      vertex 27.5 12.25 0
      vertex -6.46789 50.0841 0
      vertex -4.48419 50.3005 0
    endloop
  endfacet
  facet normal 0 0 -1
    outer loop
      vertex -12.3461 -48.9676 0
      vertex 27.5 -12.25 0
      vertex -10.4019 -49.4171 0
    endloop
  endfacet
  facet normal 0 0 -1
    outer loop
      vertex 27.5 12.25 0
      vertex -8.4415 49.7895 0
      vertex -6.46789 50.0841 0
    endloop
  endfacet
  facet normal 0 0 -1
    outer loop
      vertex -14.271 -48.4416 0
      vertex 27.5 -12.25 0
      vertex -12.3461 -48.9676 0
    endloop
  endfacet
  facet normal 0 0 -1
    outer loop
      vertex 27.5 12.25 0
      vertex -10.4019 49.4171 0
      vertex -8.4415 49.7895 0
    endloop
  endfacet
  facet normal 0 0 -1
    outer loop
      vertex -16.1736 -47.84 0
      vertex 27.5 -12.25 0
      vertex -14.271 -48.4416 0
    endloop
  endfacet
  facet normal 0 0 -1
    outer loop
      vertex 27.5 12.25 0
      vertex -12.3461 48.9676 0
      vertex -10.4019 49.4171 0
    endloop
  endfacet
  facet normal 0 0 -1
    outer loop
      vertex -18.051 -47.1637 0
      vertex 27.5 -12.25 0
      vertex -16.1736 -47.84 0
    endloop
  endfacet
  facet normal 0 0 -1
    outer loop
      vertex 27.5 12.25 0
      vertex -14.271 48.4416 0
      vertex -12.3461 48.9676 0
    endloop
  endfacet
  facet normal 0 0 -1
    outer loop
      vertex -19.9002 -46.4137 0
      vertex 27.5 -12.25 0
      vertex -18.051 -47.1637 0
    endloop
  endfacet
  facet normal 0 0 -1
    outer loop
      vertex 27.5 12.25 0
      vertex -16.1736 47.84 0
      vertex -14.271 48.4416 0
    endloop
  endfacet
  facet normal 0 0 -1
    outer loop
      vertex -21.7183 -45.5913 0
      vertex 27.5 -12.25 0
      vertex -19.9002 -46.4137 0
    endloop
  endfacet
  facet normal 0 0 -1
    outer loop
      vertex 27.5 12.25 0
      vertex -18.051 47.1637 0
      vertex -16.1736 47.84 0
    endloop
  endfacet
  facet normal 0 0 -1
    outer loop
      vertex -23.5025 -44.6977 0
      vertex 27.5 -12.25 0
      vertex -21.7183 -45.5913 0
    endloop
  endfacet
  facet normal 0 0 -1
    outer loop
      vertex 27.5 12.25 0
      vertex -19.9002 46.4137 0
      vertex -18.051 47.1637 0
    endloop
  endfacet
  facet normal 0 0 -1
    outer loop
      vertex -25.25 -43.7343 0
      vertex 27.5 -12.25 0
      vertex -23.5025 -44.6977 0
    endloop
  endfacet
  facet normal 0 0 -1
    outer loop
      vertex 27.5 12.25 0
      vertex -21.7183 45.5913 0
      vertex -19.9002 46.4137 0
    endloop
  endfacet
  facet normal 0 0 -1
    outer loop
      vertex -26.9581 -42.7026 0
      vertex 27.5 -12.25 0
      vertex -25.25 -43.7343 0
    endloop
  endfacet
  facet normal 0 0 -1
    outer loop
      vertex 27.5 12.25 0
      vertex -23.5025 44.6977 0
      vertex -21.7183 45.5913 0
    endloop
  endfacet
  facet normal 0 0 -1
    outer loop
      vertex -28.6241 -41.6042 0
      vertex 27.5 -12.25 0
      vertex -26.9581 -42.7026 0
    endloop
  endfacet
  facet normal 0 0 -1
    outer loop
      vertex 27.5 12.25 0
      vertex -25.25 43.7343 0
      vertex -23.5025 44.6977 0
    endloop
  endfacet
  facet normal 0 0 -1
    outer loop
      vertex -30.2454 -40.4409 0
      vertex 27.5 -12.25 0
      vertex -28.6241 -41.6042 0
    endloop
  endfacet
  facet normal 0 0 -1
    outer loop
      vertex 27.5 12.25 0
      vertex -26.9581 42.7026 0
      vertex -25.25 43.7343 0
    endloop
  endfacet
  facet normal 0 0 -1
    outer loop
      vertex -31.8194 -39.2145 0
      vertex 27.5 -12.25 0
      vertex -30.2454 -40.4409 0
    endloop
  endfacet
  facet normal 0 0 -1
    outer loop
      vertex 27.5 12.25 0
      vertex -28.6241 41.6042 0
      vertex -26.9581 42.7026 0
    endloop
  endfacet
  facet normal 0 0 -1
    outer loop
      vertex -33.3438 -37.9268 0
      vertex 27.5 -12.25 0
      vertex -31.8194 -39.2145 0
    endloop
  endfacet
  facet normal 0 0 -1
    outer loop
      vertex 27.5 12.25 0
      vertex -30.2454 40.4409 0
      vertex -28.6241 41.6042 0
    endloop
  endfacet
  facet normal 0 0 -1
    outer loop
      vertex -34.8162 -36.5799 0
      vertex 27.5 -12.25 0
      vertex -33.3438 -37.9268 0
    endloop
  endfacet
  facet normal 0 0 -1
    outer loop
      vertex 27.5 12.25 0
      vertex -31.8194 39.2145 0
      vertex -30.2454 40.4409 0
    endloop
  endfacet
  facet normal 0 0 -1
    outer loop
      vertex -36.2341 -35.1758 0
      vertex 27.5 -12.25 0
      vertex -34.8162 -36.5799 0
    endloop
  endfacet
  facet normal 0 0 -1
    outer loop
      vertex 27.5 12.25 0
      vertex -33.3438 37.9268 0
      vertex -31.8194 39.2145 0
    endloop
  endfacet
  facet normal 0 0 -1
    outer loop
      vertex -37.5955 -33.7169 0
      vertex 27.5 -12.25 0
      vertex -36.2341 -35.1758 0
    endloop
  endfacet
  facet normal 0 0 -1
    outer loop
      vertex 27.5 12.25 0
      vertex -34.8162 36.5799 0
      vertex -33.3438 37.9268 0
    endloop
  endfacet
  facet normal 0 0 -1
    outer loop
      vertex -38.8982 -32.2053 0
      vertex 27.5 -12.25 0
      vertex -37.5955 -33.7169 0
    endloop
  endfacet
  facet normal 0 0 -1
    outer loop
      vertex 27.5 12.25 0
      vertex -36.2341 35.1758 0
      vertex -34.8162 36.5799 0
    endloop
  endfacet
  facet normal 0 0 -1
    outer loop
      vertex -40.1401 -30.6434 0
      vertex 27.5 -12.25 0
      vertex -38.8982 -32.2053 0
    endloop
  endfacet
  facet normal 0 0 -1
    outer loop
      vertex 27.5 12.25 0
      vertex -37.5955 33.7169 0
      vertex -36.2341 35.1758 0
    endloop
  endfacet
  facet normal 0 0 -1
    outer loop
      vertex -41.3194 -29.0337 0
      vertex 27.5 -12.25 0
      vertex -40.1401 -30.6434 0
    endloop
  endfacet
  facet normal 0 0 -1
    outer loop
      vertex 27.5 12.25 0
      vertex -38.8982 32.2053 0
      vertex -37.5955 33.7169 0
    endloop
  endfacet
  facet normal 0 0 -1
    outer loop
      vertex -42.4342 -27.3786 0
      vertex 27.5 -12.25 0
      vertex -41.3194 -29.0337 0
    endloop
  endfacet
  facet normal 0 0 -1
    outer loop
      vertex 27.5 12.25 0
      vertex -40.1401 30.6434 0
      vertex -38.8982 32.2053 0
    endloop
  endfacet
  facet normal 0 0 -1
    outer loop
      vertex -43.4827 -25.6808 0
      vertex 27.5 -12.25 0
      vertex -42.4342 -27.3786 0
    endloop
  endfacet
  facet normal 0 0 -1
    outer loop
      vertex 27.5 12.25 0
      vertex -41.3194 29.0337 0
      vertex -40.1401 30.6434 0
    endloop
  endfacet
  facet normal 0 0 -1
    outer loop
      vertex -44.4633 -23.9429 0
      vertex 27.5 -12.25 0
      vertex -43.4827 -25.6808 0
    endloop
  endfacet
  facet normal 0 0 -1
    outer loop
      vertex 27.5 12.25 0
      vertex -42.4342 27.3786 0
      vertex -41.3194 29.0337 0
    endloop
  endfacet
  facet normal 0 0 -1
    outer loop
      vertex -45.3745 -22.1676 0
      vertex 27.5 -12.25 0
      vertex -44.4633 -23.9429 0
    endloop
  endfacet
  facet normal 0 0 -1
    outer loop
      vertex 27.5 12.25 0
      vertex -43.4827 25.6808 0
      vertex -42.4342 27.3786 0
    endloop
  endfacet
  facet normal 0 0 -1
    outer loop
      vertex -46.2149 -20.3577 0
      vertex 27.5 -12.25 0
      vertex -45.3745 -22.1676 0
    endloop
  endfacet
  facet normal 0 0 -1
    outer loop
      vertex 27.5 12.25 0
      vertex -44.4633 23.9429 0
      vertex -43.4827 25.6808 0
    endloop
  endfacet
  facet normal 0 0 -1
    outer loop
      vertex -46.983 -18.516 0
      vertex 27.5 -12.25 0
      vertex -46.2149 -20.3577 0
    endloop
  endfacet
  facet normal 0 0 -1
    outer loop
      vertex 27.5 12.25 0
      vertex -45.3745 22.1676 0
      vertex -44.4633 23.9429 0
    endloop
  endfacet
  facet normal 0 0 -1
    outer loop
      vertex -47.6779 -16.6455 0
      vertex 27.5 -12.25 0
      vertex -46.983 -18.516 0
    endloop
  endfacet
  facet normal 0 0 -1
    outer loop
      vertex 27.5 12.25 0
      vertex -46.2149 20.3577 0
      vertex -45.3745 22.1676 0
    endloop
  endfacet
  facet normal 0 0 -1
    outer loop
      vertex -48.2982 -14.7489 0
      vertex 27.5 -12.25 0
      vertex -47.6779 -16.6455 0
    endloop
  endfacet
  facet normal 0 0 -1
    outer loop
      vertex 27.5 12.25 0
      vertex -46.983 18.516 0
      vertex -46.2149 20.3577 0
    endloop
  endfacet
  facet normal 0 0 -1
    outer loop
      vertex -48.8432 -12.8293 0
      vertex 27.5 -12.25 0
      vertex -48.2982 -14.7489 0
    endloop
  endfacet
  facet normal 0 0 -1
    outer loop
      vertex 27.5 12.25 0
      vertex -47.6779 16.6455 0
      vertex -46.983 18.516 0
    endloop
  endfacet
  facet normal 0 0 -1
    outer loop
      vertex -49.3119 -10.8896 0
      vertex 27.5 -12.25 0
      vertex -48.8432 -12.8293 0
    endloop
  endfacet
  facet normal 0 0 -1
    outer loop
      vertex 27.5 12.25 0
      vertex -48.2982 14.7489 0
      vertex -47.6779 16.6455 0
    endloop
  endfacet
  facet normal 0 0 -1
    outer loop
      vertex -49.7036 -8.93296 0
      vertex 27.5 -12.25 0
      vertex -49.3119 -10.8896 0
    endloop
  endfacet
  facet normal 0 0 -1
    outer loop
      vertex 27.5 12.25 0
      vertex -48.8432 12.8293 0
      vertex -48.2982 14.7489 0
    endloop
  endfacet
  facet normal 0 0 -1
    outer loop
      vertex -50.0178 -6.96236 0
      vertex 27.5 -12.25 0
      vertex -49.7036 -8.93296 0
    endloop
  endfacet
  facet normal -0 0 -1
    outer loop
      vertex 27.5 12.25 0
      vertex -49.3119 10.8896 0
      vertex -48.8432 12.8293 0
    endloop
  endfacet
  facet normal 0 0 -1
    outer loop
      vertex -50.2538 -4.9809 0
      vertex 27.5 -12.25 0
      vertex -50.0178 -6.96236 0
    endloop
  endfacet
  facet normal 0 0 -1
    outer loop
      vertex 27.5 12.25 0
      vertex -49.7036 8.93296 0
      vertex -49.3119 10.8896 0
    endloop
  endfacet
  facet normal 0 0 -1
    outer loop
      vertex -50.4113 -2.99165 0
      vertex 27.5 -12.25 0
      vertex -50.2538 -4.9809 0
    endloop
  endfacet
  facet normal 0 0 -1
    outer loop
      vertex 27.5 12.25 0
      vertex -50.0178 6.96236 0
      vertex -49.7036 8.93296 0
    endloop
  endfacet
  facet normal 0 0 -1
    outer loop
      vertex -50.4901 -0.997736 0
      vertex 27.5 -12.25 0
      vertex -50.4113 -2.99165 0
    endloop
  endfacet
  facet normal 0 0 -1
    outer loop
      vertex 27.5 12.25 0
      vertex -50.2538 4.9809 0
      vertex -50.0178 6.96236 0
    endloop
  endfacet
  facet normal 0 0 -1
    outer loop
      vertex 27.5 -12.25 0
      vertex -50.4901 -0.997736 0
      vertex 27.5 12.25 0
    endloop
  endfacet
  facet normal 0 0 -1
    outer loop
      vertex 27.5 12.25 0
      vertex -50.4113 2.99165 0
      vertex -50.2538 4.9809 0
    endloop
  endfacet
  facet normal 0 0 -1
    outer loop
      vertex -50.4901 0.997736 0
      vertex 27.5 12.25 0
      vertex -50.4901 -0.997736 0
    endloop
  endfacet
  facet normal 0 0 -1
    outer loop
      vertex 27.5 12.25 0
      vertex -50.4901 0.997736 0
      vertex -50.4113 2.99165 0
    endloop
  endfacet
  facet normal 0.167159 -0.98593 0
    outer loop
      vertex 7.45615 -49.9465 0
      vertex 9.42355 -49.613 62
      vertex 7.45615 -49.9465 62
    endloop
  endfacet
  facet normal 0.167159 -0.98593 0
    outer loop
      vertex 9.42355 -49.613 62
      vertex 7.45615 -49.9465 0
      vertex 9.42355 -49.613 0
    endloop
  endfacet
  facet normal 0.944116 0.329613 0
    outer loop
      vertex 47.9974 15.7002 62
      vertex 47.3397 17.5842 0
      vertex 47.3397 17.5842 62
    endloop
  endfacet
  facet normal 0.944116 0.329613 0
    outer loop
      vertex 47.3397 17.5842 0
      vertex 47.9974 15.7002 62
      vertex 47.9974 15.7002 0
    endloop
  endfacet
  facet normal 0.930357 0.366654 0
    outer loop
      vertex 47.3397 17.5842 62
      vertex 46.608 19.4407 0
      vertex 46.608 19.4407 62
    endloop
  endfacet
  facet normal 0.930357 0.366654 0
    outer loop
      vertex 46.608 19.4407 0
      vertex 47.3397 17.5842 62
      vertex 47.3397 17.5842 0
    endloop
  endfacet
  facet normal 0.744466 0.66766 0
    outer loop
      vertex 38.2543 32.9675 62
      vertex 36.922 34.4531 0
      vertex 36.922 34.4531 62
    endloop
  endfacet
  facet normal 0.744466 0.66766 0
    outer loop
      vertex 36.922 34.4531 0
      vertex 38.2543 32.9675 62
      vertex 38.2543 32.9675 0
    endloop
  endfacet
  facet normal 0.717506 0.696552 0
    outer loop
      vertex 36.922 34.4531 62
      vertex 35.5321 35.8848 0
      vertex 35.5321 35.8848 62
    endloop
  endfacet
  facet normal 0.717506 0.696552 0
    outer loop
      vertex 35.5321 35.8848 0
      vertex 36.922 34.4531 62
      vertex 36.922 34.4531 0
    endloop
  endfacet
  facet normal 0.880462 0.474117 0
    outer loop
      vertex 44.9277 23.0598 62
      vertex 43.9816 24.8167 0
      vertex 43.9816 24.8167 62
    endloop
  endfacet
  facet normal 0.880462 0.474117 0
    outer loop
      vertex 43.9816 24.8167 0
      vertex 44.9277 23.0598 62
      vertex 44.9277 23.0598 0
    endloop
  endfacet
  facet normal 0.282593 0.95924 -0
    outer loop
      vertex 15.2253 48.1502 0
      vertex 13.3112 48.7141 62
      vertex 15.2253 48.1502 62
    endloop
  endfacet
  facet normal 0.282593 0.95924 0
    outer loop
      vertex 13.3112 48.7141 62
      vertex 15.2253 48.1502 0
      vertex 13.3112 48.7141 0
    endloop
  endfacet
  facet normal 0.00987954 0.999951 -0
    outer loop
      vertex 1.49648 50.4778 0
      vertex -0.498892 50.4975 62
      vertex 1.49648 50.4778 62
    endloop
  endfacet
  facet normal 0.00987954 0.999951 0
    outer loop
      vertex -0.498892 50.4975 62
      vertex 1.49648 50.4778 0
      vertex -0.498892 50.4975 0
    endloop
  endfacet
  facet normal 0.430066 0.902798 -0
    outer loop
      vertex 22.6148 45.1533 0
      vertex 20.8133 46.0115 62
      vertex 22.6148 45.1533 62
    endloop
  endfacet
  facet normal 0.430066 0.902798 0
    outer loop
      vertex 20.8133 46.0115 62
      vertex 22.6148 45.1533 0
      vertex 20.8133 46.0115 0
    endloop
  endfacet
  facet normal 0.394064 0.919083 -0
    outer loop
      vertex 20.8133 46.0115 0
      vertex 18.9793 46.7978 62
      vertex 20.8133 46.0115 62
    endloop
  endfacet
  facet normal 0.394064 0.919083 0
    outer loop
      vertex 18.9793 46.7978 62
      vertex 20.8133 46.0115 0
      vertex 18.9793 46.7978 0
    endloop
  endfacet
  facet normal 0.660274 0.751025 -0
    outer loop
      vertex 34.0866 37.2606 0
      vertex 32.588 38.5781 62
      vertex 34.0866 37.2606 62
    endloop
  endfacet
  facet normal 0.660274 0.751025 0
    outer loop
      vertex 32.588 38.5781 62
      vertex 34.0866 37.2606 0
      vertex 32.588 38.5781 0
    endloop
  endfacet
  facet normal -0.829406 0.558647 0
    outer loop
      vertex -42.4342 27.3786 0
      vertex -41.3194 29.0337 62
      vertex -41.3194 29.0337 0
    endloop
  endfacet
  facet normal -0.829406 0.558647 0
    outer loop
      vertex -41.3194 29.0337 62
      vertex -42.4342 27.3786 0
      vertex -42.4342 27.3786 62
    endloop
  endfacet
  facet normal -0.806688 0.590978 0
    outer loop
      vertex -41.3194 29.0337 0
      vertex -40.1401 30.6434 62
      vertex -40.1401 30.6434 0
    endloop
  endfacet
  facet normal -0.806688 0.590978 0
    outer loop
      vertex -40.1401 30.6434 62
      vertex -41.3194 29.0337 0
      vertex -41.3194 29.0337 62
    endloop
  endfacet
  facet normal -0.972022 0.234889 0
    outer loop
      vertex -48.8432 12.8293 0
      vertex -48.9832 12.25 34.0525
      vertex -48.8432 12.8293 62
    endloop
  endfacet
  facet normal -0.972023 0.234886 -6.83735e-08
    outer loop
      vertex -49.3119 10.8896 0
      vertex -48.9832 12.25 34.0525
      vertex -48.8432 12.8293 0
    endloop
  endfacet
  facet normal -0.972023 0.234884 0
    outer loop
      vertex -48.9832 12.25 34.0525
      vertex -49.3119 10.8896 0
      vertex -49.3119 10.8896 34.1989
    endloop
  endfacet
  facet normal -0.972022 0.234889 0
    outer loop
      vertex -48.8432 12.8293 62
      vertex -48.9832 12.25 34.0525
      vertex -48.9832 12.25 62
    endloop
  endfacet
  facet normal -0.961985 0.273104 0
    outer loop
      vertex -48.8432 12.8293 0
      vertex -48.2982 14.7489 62
      vertex -48.2982 14.7489 0
    endloop
  endfacet
  facet normal -0.961985 0.273104 0
    outer loop
      vertex -48.2982 14.7489 62
      vertex -48.8432 12.8293 0
      vertex -48.8432 12.8293 62
    endloop
  endfacet
  facet normal -0.992981 0.118272 0
    outer loop
      vertex -50.2538 4.9809 0
      vertex -50.0178 6.96236 34.5131
      vertex -50.0178 6.96236 0
    endloop
  endfacet
  facet normal -0.992981 0.118272 0
    outer loop
      vertex -50.0178 6.96236 34.5131
      vertex -50.2538 4.9809 0
      vertex -50.2538 4.9809 34.6182
    endloop
  endfacet
  facet normal -0.482792 0.875735 0
    outer loop
      vertex -23.5025 44.6977 0
      vertex -25.25 43.7343 62
      vertex -23.5025 44.6977 62
    endloop
  endfacet
  facet normal -0.482792 0.875735 0
    outer loop
      vertex -25.25 43.7343 62
      vertex -23.5025 44.6977 0
      vertex -25.25 43.7343 0
    endloop
  endfacet
  facet normal -0.703606 0.710591 0
    outer loop
      vertex -34.8162 36.5799 0
      vertex -36.2341 35.1758 62
      vertex -34.8162 36.5799 62
    endloop
  endfacet
  facet normal -0.703606 0.710591 0
    outer loop
      vertex -36.2341 35.1758 62
      vertex -34.8162 36.5799 0
      vertex -36.2341 35.1758 0
    endloop
  endfacet
  facet normal -0.301491 0.953469 0
    outer loop
      vertex -14.271 48.4416 0
      vertex -16.1736 47.84 62
      vertex -14.271 48.4416 62
    endloop
  endfacet
  facet normal -0.301491 0.953469 0
    outer loop
      vertex -16.1736 47.84 62
      vertex -14.271 48.4416 0
      vertex -16.1736 47.84 0
    endloop
  endfacet
  facet normal -0.0691014 0.99761 0
    outer loop
      vertex -2.49349 50.4384 0
      vertex -4.48419 50.3005 62
      vertex -2.49349 50.4384 62
    endloop
  endfacet
  facet normal -0.0691014 0.99761 0
    outer loop
      vertex -4.48419 50.3005 62
      vertex -2.49349 50.4384 0
      vertex -4.48419 50.3005 0
    endloop
  endfacet
  facet normal 0.967192 -0.254045 0
    outer loop
      vertex 48.5802 -13.7918 62
      vertex 48.9852 -12.25 0
      vertex 48.9852 -12.25 62
    endloop
  endfacet
  facet normal 0.967192 -0.254045 0
    outer loop
      vertex 48.9852 -12.25 0
      vertex 48.5802 -13.7918 62
      vertex 48.5802 -13.7918 0
    endloop
  endfacet
  facet normal 0.944116 -0.329613 0
    outer loop
      vertex 47.3397 -17.5842 62
      vertex 47.9974 -15.7002 0
      vertex 47.9974 -15.7002 62
    endloop
  endfacet
  facet normal 0.944116 -0.329613 0
    outer loop
      vertex 47.9974 -15.7002 0
      vertex 47.3397 -17.5842 62
      vertex 47.3397 -17.5842 0
    endloop
  endfacet
  facet normal 0.861044 -0.508531 0
    outer loop
      vertex 42.9668 -26.5349 62
      vertex 43.9816 -24.8167 0
      vertex 43.9816 -24.8167 62
    endloop
  endfacet
  facet normal 0.861044 -0.508531 0
    outer loop
      vertex 43.9816 -24.8167 0
      vertex 42.9668 -26.5349 62
      vertex 42.9668 -26.5349 0
    endloop
  endfacet
  facet normal 0.689429 -0.724353 0
    outer loop
      vertex 34.0866 -37.2606 0
      vertex 35.5321 -35.8848 62
      vertex 34.0866 -37.2606 62
    endloop
  endfacet
  facet normal 0.689429 -0.724353 0
    outer loop
      vertex 35.5321 -35.8848 62
      vertex 34.0866 -37.2606 0
      vertex 35.5321 -35.8848 0
    endloop
  endfacet
  facet normal 0.533822 -0.845597 0
    outer loop
      vertex 26.1091 -43.2269 0
      vertex 27.7965 -42.1616 62
      vertex 26.1091 -43.2269 62
    endloop
  endfacet
  facet normal 0.533822 -0.845597 0
    outer loop
      vertex 27.7965 -42.1616 62
      vertex 26.1091 -43.2269 0
      vertex 27.7965 -42.1616 0
    endloop
  endfacet
  facet normal -0.375827 -0.92669 0
    outer loop
      vertex -19.9002 -46.4137 0
      vertex -18.051 -47.1637 62
      vertex -19.9002 -46.4137 62
    endloop
  endfacet
  facet normal -0.375827 -0.92669 -0
    outer loop
      vertex -18.051 -47.1637 62
      vertex -19.9002 -46.4137 0
      vertex -18.051 -47.1637 0
    endloop
  endfacet
  facet normal -0.147646 -0.98904 0
    outer loop
      vertex -8.4415 -49.7895 0
      vertex -6.46789 -50.0841 62
      vertex -8.4415 -49.7895 62
    endloop
  endfacet
  facet normal -0.147646 -0.98904 -0
    outer loop
      vertex -6.46789 -50.0841 62
      vertex -8.4415 -49.7895 0
      vertex -6.46789 -50.0841 0
    endloop
  endfacet
  facet normal -0.870923 -0.49142 0
    outer loop
      vertex -43.4827 -25.6808 0
      vertex -44.4633 -23.9429 62
      vertex -44.4633 -23.9429 0
    endloop
  endfacet
  facet normal -0.870923 -0.49142 0
    outer loop
      vertex -44.4633 -23.9429 62
      vertex -43.4827 -25.6808 0
      vertex -43.4827 -25.6808 62
    endloop
  endfacet
  facet normal -0.829406 -0.558647 0
    outer loop
      vertex -41.3194 -29.0337 0
      vertex -42.4342 -27.3786 62
      vertex -42.4342 -27.3786 0
    endloop
  endfacet
  facet normal -0.829406 -0.558647 0
    outer loop
      vertex -42.4342 -27.3786 62
      vertex -41.3194 -29.0337 0
      vertex -41.3194 -29.0337 62
    endloop
  endfacet
  facet normal -0.73113 -0.682239 0
    outer loop
      vertex -36.2341 -35.1758 0
      vertex -37.5955 -33.7169 62
      vertex -37.5955 -33.7169 0
    endloop
  endfacet
  facet normal -0.73113 -0.682239 0
    outer loop
      vertex -37.5955 -33.7169 62
      vertex -36.2341 -35.1758 0
      vertex -36.2341 -35.1758 62
    endloop
  endfacet
  facet normal -0.922931 -0.384965 0
    outer loop
      vertex -46.2149 -20.3577 0
      vertex -46.983 -18.516 62
      vertex -46.983 -18.516 0
    endloop
  endfacet
  facet normal -0.922931 -0.384965 0
    outer loop
      vertex -46.983 -18.516 62
      vertex -46.2149 -20.3577 0
      vertex -46.2149 -20.3577 62
    endloop
  endfacet
  facet normal -0.987533 -0.157411 -0
    outer loop
      vertex -49.7036 -8.93296 34.3733
      vertex -50.0178 -6.96236 0
      vertex -49.7036 -8.93296 0
    endloop
  endfacet
  facet normal -0.987533 -0.157411 0
    outer loop
      vertex -50.0178 -6.96236 0
      vertex -49.7036 -8.93296 34.3733
      vertex -50.0178 -6.96236 34.5131
    endloop
  endfacet
  facet normal -0.980543 -0.196302 -0
    outer loop
      vertex -49.3119 -10.8896 34.1989
      vertex -49.7036 -8.93296 0
      vertex -49.3119 -10.8896 0
    endloop
  endfacet
  facet normal -0.980543 -0.196302 0
    outer loop
      vertex -49.7036 -8.93296 0
      vertex -49.3119 -10.8896 34.1989
      vertex -49.7036 -8.93296 34.3733
    endloop
  endfacet
  facet normal 0.320271 -0.947326 0
    outer loop
      vertex 15.2253 -48.1502 0
      vertex 17.1157 -47.5111 62
      vertex 15.2253 -48.1502 62
    endloop
  endfacet
  facet normal 0.320271 -0.947326 0
    outer loop
      vertex 17.1157 -47.5111 62
      vertex 15.2253 -48.1502 0
      vertex 17.1157 -47.5111 0
    endloop
  endfacet
  facet normal 0.394064 -0.919083 0
    outer loop
      vertex 18.9793 -46.7978 0
      vertex 20.8133 -46.0115 62
      vertex 18.9793 -46.7978 62
    endloop
  endfacet
  facet normal 0.394064 -0.919083 0
    outer loop
      vertex 20.8133 -46.0115 62
      vertex 18.9793 -46.7978 0
      vertex 20.8133 -46.0115 0
    endloop
  endfacet
  facet normal 0.956401 -0.292056 0
    outer loop
      vertex 47.9974 -15.7002 62
      vertex 48.5802 -13.7918 0
      vertex 48.5802 -13.7918 62
    endloop
  endfacet
  facet normal 0.956401 -0.292056 0
    outer loop
      vertex 48.5802 -13.7918 0
      vertex 47.9974 -15.7002 62
      vertex 47.9974 -15.7002 0
    endloop
  endfacet
  facet normal 0.898505 -0.438963 0
    outer loop
      vertex 44.9277 -23.0598 62
      vertex 45.8036 -21.2668 0
      vertex 45.8036 -21.2668 62
    endloop
  endfacet
  facet normal 0.898505 -0.438963 0
    outer loop
      vertex 45.8036 -21.2668 0
      vertex 44.9277 -23.0598 62
      vertex 44.9277 -23.0598 0
    endloop
  endfacet
  facet normal 0.840281 -0.542151 0
    outer loop
      vertex 41.885 -28.2117 62
      vertex 42.9668 -26.5349 0
      vertex 42.9668 -26.5349 62
    endloop
  endfacet
  facet normal 0.840281 -0.542151 0
    outer loop
      vertex 42.9668 -26.5349 0
      vertex 41.885 -28.2117 62
      vertex 41.885 -28.2117 0
    endloop
  endfacet
  facet normal 0.630088 -0.776524 0
    outer loop
      vertex 31.0385 -39.8355 0
      vertex 32.588 -38.5781 62
      vertex 31.0385 -39.8355 62
    endloop
  endfacet
  facet normal 0.630088 -0.776524 0
    outer loop
      vertex 32.588 -38.5781 62
      vertex 31.0385 -39.8355 0
      vertex 32.588 -38.5781 0
    endloop
  endfacet
  facet normal 0.500001 -0.866025 0
    outer loop
      vertex 24.381 -44.2246 0
      vertex 26.1091 -43.2269 62
      vertex 24.381 -44.2246 62
    endloop
  endfacet
  facet normal 0.500001 -0.866025 0
    outer loop
      vertex 26.1091 -43.2269 62
      vertex 24.381 -44.2246 0
      vertex 26.1091 -43.2269 0
    endloop
  endfacet
  facet normal -0.0296329 -0.999561 0
    outer loop
      vertex -2.49349 -50.4384 0
      vertex -0.498892 -50.4975 62
      vertex -2.49349 -50.4384 62
    endloop
  endfacet
  facet normal -0.0296329 -0.999561 -0
    outer loop
      vertex -0.498892 -50.4975 62
      vertex -2.49349 -50.4384 0
      vertex -0.498892 -50.4975 0
    endloop
  endfacet
  facet normal -0.550426 -0.834884 0
    outer loop
      vertex -28.6241 -41.6042 0
      vertex -26.9581 -42.7026 62
      vertex -28.6241 -41.6042 62
    endloop
  endfacet
  facet normal -0.550426 -0.834884 -0
    outer loop
      vertex -26.9581 -42.7026 62
      vertex -28.6241 -41.6042 0
      vertex -26.9581 -42.7026 0
    endloop
  endfacet
  facet normal -0.338925 -0.940814 0
    outer loop
      vertex -18.051 -47.1637 0
      vertex -16.1736 -47.84 62
      vertex -18.051 -47.1637 62
    endloop
  endfacet
  facet normal -0.338925 -0.940814 -0
    outer loop
      vertex -16.1736 -47.84 62
      vertex -18.051 -47.1637 0
      vertex -16.1736 -47.84 0
    endloop
  endfacet
  facet normal -0.850828 -0.525445 0
    outer loop
      vertex -42.4342 -27.3786 0
      vertex -43.4827 -25.6808 62
      vertex -43.4827 -25.6808 0
    endloop
  endfacet
  facet normal -0.850828 -0.525445 0
    outer loop
      vertex -43.4827 -25.6808 62
      vertex -42.4342 -27.3786 0
      vertex -42.4342 -27.3786 62
    endloop
  endfacet
  facet normal -0.889657 -0.456629 0
    outer loop
      vertex -44.4633 -23.9429 0
      vertex -45.3745 -22.1676 62
      vertex -45.3745 -22.1676 0
    endloop
  endfacet
  facet normal -0.889657 -0.456629 0
    outer loop
      vertex -45.3745 -22.1676 62
      vertex -44.4633 -23.9429 0
      vertex -44.4633 -23.9429 62
    endloop
  endfacet
  facet normal -0.78271 -0.622386 0
    outer loop
      vertex -38.8982 -32.2053 0
      vertex -40.1401 -30.6434 62
      vertex -40.1401 -30.6434 0
    endloop
  endfacet
  facet normal -0.78271 -0.622386 0
    outer loop
      vertex -40.1401 -30.6434 62
      vertex -38.8982 -32.2053 0
      vertex -38.8982 -32.2053 62
    endloop
  endfacet
  facet normal -0.703606 -0.710591 0
    outer loop
      vertex -36.2341 -35.1758 0
      vertex -34.8162 -36.5799 62
      vertex -36.2341 -35.1758 62
    endloop
  endfacet
  facet normal -0.703606 -0.710591 -0
    outer loop
      vertex -34.8162 -36.5799 62
      vertex -36.2341 -35.1758 0
      vertex -34.8162 -36.5799 0
    endloop
  endfacet
  facet normal -0.950444 -0.310896 0
    outer loop
      vertex -47.6779 -16.6455 0
      vertex -48.2982 -14.7489 62
      vertex -48.2982 -14.7489 0
    endloop
  endfacet
  facet normal -0.950444 -0.310896 0
    outer loop
      vertex -48.2982 -14.7489 62
      vertex -47.6779 -16.6455 0
      vertex -47.6779 -16.6455 62
    endloop
  endfacet
  facet normal -0.999219 -0.0395067 -0
    outer loop
      vertex -50.4113 -2.99165 34.6884
      vertex -50.4901 -0.997736 0
      vertex -50.4113 -2.99165 0
    endloop
  endfacet
  facet normal -0.999219 -0.0395067 0
    outer loop
      vertex -50.4901 -0.997736 0
      vertex -50.4113 -2.99165 34.6884
      vertex -50.4901 -0.997736 34.7234
    endloop
  endfacet
  facet normal 0.244477 -0.969655 0
    outer loop
      vertex 11.3762 -49.2019 0
      vertex 13.3112 -48.7141 62
      vertex 11.3762 -49.2019 62
    endloop
  endfacet
  facet normal 0.244477 -0.969655 0
    outer loop
      vertex 13.3112 -48.7141 62
      vertex 11.3762 -49.2019 0
      vertex 13.3112 -48.7141 0
    endloop
  endfacet
  facet normal 0.282593 -0.95924 0
    outer loop
      vertex 13.3112 -48.7141 0
      vertex 15.2253 -48.1502 62
      vertex 13.3112 -48.7141 62
    endloop
  endfacet
  facet normal 0.282593 -0.95924 0
    outer loop
      vertex 15.2253 -48.1502 62
      vertex 13.3112 -48.7141 0
      vertex 15.2253 -48.1502 0
    endloop
  endfacet
  facet normal 0.357445 -0.933934 0
    outer loop
      vertex 17.1157 -47.5111 0
      vertex 18.9793 -46.7978 62
      vertex 17.1157 -47.5111 62
    endloop
  endfacet
  facet normal 0.357445 -0.933934 0
    outer loop
      vertex 18.9793 -46.7978 62
      vertex 17.1157 -47.5111 0
      vertex 18.9793 -46.7978 0
    endloop
  endfacet
  facet normal 0.915145 -0.403124 0
    outer loop
      vertex 45.8036 -21.2668 62
      vertex 46.608 -19.4407 0
      vertex 46.608 -19.4407 62
    endloop
  endfacet
  facet normal 0.915145 -0.403124 0
    outer loop
      vertex 46.608 -19.4407 0
      vertex 45.8036 -21.2668 62
      vertex 45.8036 -21.2668 0
    endloop
  endfacet
  facet normal 0.818206 -0.574925 0
    outer loop
      vertex 40.7377 -29.8444 62
      vertex 41.885 -28.2117 0
      vertex 41.885 -28.2117 62
    endloop
  endfacet
  facet normal 0.818206 -0.574925 0
    outer loop
      vertex 41.885 -28.2117 0
      vertex 40.7377 -29.8444 62
      vertex 40.7377 -29.8444 0
    endloop
  endfacet
  facet normal 0.660274 -0.751025 0
    outer loop
      vertex 32.588 -38.5781 0
      vertex 34.0866 -37.2606 62
      vertex 32.588 -38.5781 62
    endloop
  endfacet
  facet normal 0.660274 -0.751025 0
    outer loop
      vertex 34.0866 -37.2606 62
      vertex 32.588 -38.5781 0
      vertex 34.0866 -37.2606 0
    endloop
  endfacet
  facet normal 0.566814 -0.823846 0
    outer loop
      vertex 27.7965 -42.1616 0
      vertex 29.4405 -41.0306 62
      vertex 27.7965 -42.1616 62
    endloop
  endfacet
  facet normal 0.566814 -0.823846 0
    outer loop
      vertex 29.4405 -41.0306 62
      vertex 27.7965 -42.1616 0
      vertex 29.4405 -41.0306 0
    endloop
  endfacet
  facet normal 0.465396 -0.885103 0
    outer loop
      vertex 22.6148 -45.1533 0
      vertex 24.381 -44.2246 62
      vertex 22.6148 -45.1533 62
    endloop
  endfacet
  facet normal 0.465396 -0.885103 0
    outer loop
      vertex 24.381 -44.2246 62
      vertex 22.6148 -45.1533 0
      vertex 24.381 -44.2246 0
    endloop
  endfacet
  facet normal -0.186604 -0.982435 0
    outer loop
      vertex -10.4019 -49.4171 0
      vertex -8.4415 -49.7895 62
      vertex -10.4019 -49.4171 62
    endloop
  endfacet
  facet normal -0.186604 -0.982435 -0
    outer loop
      vertex -8.4415 -49.7895 62
      vertex -10.4019 -49.4171 0
      vertex -8.4415 -49.7895 0
    endloop
  endfacet
  facet normal -0.614623 -0.788821 0
    outer loop
      vertex -31.8194 -39.2145 0
      vertex -30.2454 -40.4409 62
      vertex -31.8194 -39.2145 62
    endloop
  endfacet
  facet normal -0.614623 -0.788821 -0
    outer loop
      vertex -30.2454 -40.4409 62
      vertex -31.8194 -39.2145 0
      vertex -30.2454 -40.4409 0
    endloop
  endfacet
  facet normal -0.301491 -0.953469 0
    outer loop
      vertex -16.1736 -47.84 0
      vertex -14.271 -48.4416 62
      vertex -16.1736 -47.84 62
    endloop
  endfacet
  facet normal -0.301491 -0.953469 -0
    outer loop
      vertex -14.271 -48.4416 62
      vertex -16.1736 -47.84 0
      vertex -14.271 -48.4416 0
    endloop
  endfacet
  facet normal -0.961985 -0.273104 0
    outer loop
      vertex -48.2982 -14.7489 0
      vertex -48.8432 -12.8293 62
      vertex -48.8432 -12.8293 0
    endloop
  endfacet
  facet normal -0.961985 -0.273104 0
    outer loop
      vertex -48.8432 -12.8293 62
      vertex -48.2982 -14.7489 0
      vertex -48.2982 -14.7489 62
    endloop
  endfacet
  facet normal -0.992981 -0.118272 -0
    outer loop
      vertex -50.0178 -6.96236 34.5131
      vertex -50.2538 -4.9809 0
      vertex -50.0178 -6.96236 0
    endloop
  endfacet
  facet normal -0.992981 -0.118272 0
    outer loop
      vertex -50.2538 -4.9809 0
      vertex -50.0178 -6.96236 34.5131
      vertex -50.2538 -4.9809 34.6182
    endloop
  endfacet
  facet normal -0.996878 -0.0789522 -0
    outer loop
      vertex -50.2538 -4.9809 34.6182
      vertex -50.4113 -2.99165 0
      vertex -50.2538 -4.9809 0
    endloop
  endfacet
  facet normal -0.996878 -0.0789522 0
    outer loop
      vertex -50.4113 -2.99165 0
      vertex -50.2538 -4.9809 34.6182
      vertex -50.4113 -2.99165 34.6884
    endloop
  endfacet
  facet normal 0.128077 -0.991764 0
    outer loop
      vertex 5.47711 -50.2021 0
      vertex 7.45615 -49.9465 62
      vertex 5.47711 -50.2021 62
    endloop
  endfacet
  facet normal 0.128077 -0.991764 0
    outer loop
      vertex 7.45615 -49.9465 62
      vertex 5.47711 -50.2021 0
      vertex 7.45615 -49.9465 0
    endloop
  endfacet
  facet normal 0.0887974 -0.99605 0
    outer loop
      vertex 3.48952 -50.3793 0
      vertex 5.47711 -50.2021 62
      vertex 3.48952 -50.3793 62
    endloop
  endfacet
  facet normal 0.0887974 -0.99605 0
    outer loop
      vertex 5.47711 -50.2021 62
      vertex 3.48952 -50.3793 0
      vertex 5.47711 -50.2021 0
    endloop
  endfacet
  facet normal 0.205979 -0.978556 0
    outer loop
      vertex 9.42355 -49.613 0
      vertex 11.3762 -49.2019 62
      vertex 9.42355 -49.613 62
    endloop
  endfacet
  facet normal 0.205979 -0.978556 0
    outer loop
      vertex 11.3762 -49.2019 62
      vertex 9.42355 -49.613 0
      vertex 11.3762 -49.2019 0
    endloop
  endfacet
  facet normal 0.880462 -0.474117 0
    outer loop
      vertex 43.9816 -24.8167 62
      vertex 44.9277 -23.0598 0
      vertex 44.9277 -23.0598 62
    endloop
  endfacet
  facet normal 0.880462 -0.474117 0
    outer loop
      vertex 44.9277 -23.0598 0
      vertex 43.9816 -24.8167 62
      vertex 43.9816 -24.8167 0
    endloop
  endfacet
  facet normal 0.794854 -0.6068 0
    outer loop
      vertex 39.5269 -31.4305 62
      vertex 40.7377 -29.8444 0
      vertex 40.7377 -29.8444 62
    endloop
  endfacet
  facet normal 0.794854 -0.6068 0
    outer loop
      vertex 40.7377 -29.8444 0
      vertex 39.5269 -31.4305 62
      vertex 39.5269 -31.4305 0
    endloop
  endfacet
  facet normal 0.770262 -0.637727 0
    outer loop
      vertex 38.2543 -32.9675 62
      vertex 39.5269 -31.4305 0
      vertex 39.5269 -31.4305 62
    endloop
  endfacet
  facet normal 0.770262 -0.637727 0
    outer loop
      vertex 39.5269 -31.4305 0
      vertex 38.2543 -32.9675 62
      vertex 38.2543 -32.9675 0
    endloop
  endfacet
  facet normal 0.598918 -0.80081 0
    outer loop
      vertex 29.4405 -41.0306 0
      vertex 31.0385 -39.8355 62
      vertex 29.4405 -41.0306 62
    endloop
  endfacet
  facet normal 0.598918 -0.80081 0
    outer loop
      vertex 31.0385 -39.8355 62
      vertex 29.4405 -41.0306 0
      vertex 31.0385 -39.8355 0
    endloop
  endfacet
  facet normal -0.263587 -0.964635 0
    outer loop
      vertex -14.271 -48.4416 0
      vertex -12.3461 -48.9676 62
      vertex -14.271 -48.4416 62
    endloop
  endfacet
  facet normal -0.263587 -0.964635 -0
    outer loop
      vertex -12.3461 -48.9676 62
      vertex -14.271 -48.4416 0
      vertex -12.3461 -48.9676 0
    endloop
  endfacet
  facet normal -0.0691014 -0.99761 0
    outer loop
      vertex -4.48419 -50.3005 0
      vertex -2.49349 -50.4384 62
      vertex -4.48419 -50.3005 62
    endloop
  endfacet
  facet normal -0.0691014 -0.99761 -0
    outer loop
      vertex -2.49349 -50.4384 62
      vertex -4.48419 -50.3005 0
      vertex -2.49349 -50.4384 0
    endloop
  endfacet
  facet normal -0.447818 -0.894125 0
    outer loop
      vertex -23.5025 -44.6977 0
      vertex -21.7183 -45.5913 62
      vertex -23.5025 -44.6977 62
    endloop
  endfacet
  facet normal -0.447818 -0.894125 -0
    outer loop
      vertex -21.7183 -45.5913 62
      vertex -23.5025 -44.6977 0
      vertex -21.7183 -45.5913 0
    endloop
  endfacet
  facet normal -0.517013 -0.855978 0
    outer loop
      vertex -26.9581 -42.7026 0
      vertex -25.25 -43.7343 62
      vertex -26.9581 -42.7026 62
    endloop
  endfacet
  facet normal -0.517013 -0.855978 -0
    outer loop
      vertex -25.25 -43.7343 62
      vertex -26.9581 -42.7026 0
      vertex -25.25 -43.7343 0
    endloop
  endfacet
  facet normal -0.645306 -0.763924 0
    outer loop
      vertex -33.3438 -37.9268 0
      vertex -31.8194 -39.2145 62
      vertex -33.3438 -37.9268 62
    endloop
  endfacet
  facet normal -0.645306 -0.763924 -0
    outer loop
      vertex -31.8194 -39.2145 62
      vertex -33.3438 -37.9268 0
      vertex -31.8194 -39.2145 0
    endloop
  endfacet
  facet normal -0.108457 -0.994101 0
    outer loop
      vertex -6.46789 -50.0841 0
      vertex -4.48419 -50.3005 62
      vertex -6.46789 -50.0841 62
    endloop
  endfacet
  facet normal -0.108457 -0.994101 -0
    outer loop
      vertex -4.48419 -50.3005 62
      vertex -6.46789 -50.0841 0
      vertex -4.48419 -50.3005 0
    endloop
  endfacet
  facet normal -0.225272 -0.974296 0
    outer loop
      vertex -12.3461 -48.9676 0
      vertex -10.4019 -49.4171 62
      vertex -12.3461 -48.9676 62
    endloop
  endfacet
  facet normal -0.225272 -0.974296 -0
    outer loop
      vertex -10.4019 -49.4171 62
      vertex -12.3461 -48.9676 0
      vertex -10.4019 -49.4171 0
    endloop
  endfacet
  facet normal -0.412144 -0.911119 0
    outer loop
      vertex -21.7183 -45.5913 0
      vertex -19.9002 -46.4137 62
      vertex -21.7183 -45.5913 62
    endloop
  endfacet
  facet normal -0.412144 -0.911119 -0
    outer loop
      vertex -19.9002 -46.4137 62
      vertex -21.7183 -45.5913 0
      vertex -19.9002 -46.4137 0
    endloop
  endfacet
  facet normal -0.482792 -0.875735 0
    outer loop
      vertex -25.25 -43.7343 0
      vertex -23.5025 -44.6977 62
      vertex -25.25 -43.7343 62
    endloop
  endfacet
  facet normal -0.482792 -0.875735 -0
    outer loop
      vertex -23.5025 -44.6977 62
      vertex -25.25 -43.7343 0
      vertex -23.5025 -44.6977 0
    endloop
  endfacet
  facet normal -0.582979 -0.812487 0
    outer loop
      vertex -30.2454 -40.4409 0
      vertex -28.6241 -41.6042 62
      vertex -30.2454 -40.4409 62
    endloop
  endfacet
  facet normal -0.582979 -0.812487 -0
    outer loop
      vertex -28.6241 -41.6042 62
      vertex -30.2454 -40.4409 0
      vertex -28.6241 -41.6042 0
    endloop
  endfacet
  facet normal 0 1 0
    outer loop
      vertex 48.9852 -12.25 62
      vertex -48.9832 -12.25 34.0525
      vertex -48.9832 -12.25 62
    endloop
  endfacet
  facet normal 0 1 0
    outer loop
      vertex 27.5 -12.25 0
      vertex 48.9852 -12.25 62
      vertex 48.9852 -12.25 0
    endloop
  endfacet
  facet normal 0 1 0
    outer loop
      vertex 48.9852 -12.25 62
      vertex 27.5 -12.25 0
      vertex -48.9832 -12.25 34.0525
    endloop
  endfacet
  facet normal 0 -1 0
    outer loop
      vertex -48.9832 12.25 34.0525
      vertex 48.9852 12.25 62
      vertex -48.9832 12.25 62
    endloop
  endfacet
  facet normal 0 -1 0
    outer loop
      vertex 27.5 12.25 0
      vertex 48.9852 12.25 62
      vertex -48.9832 12.25 34.0525
    endloop
  endfacet
  facet normal 0 -1 -0
    outer loop
      vertex 48.9852 12.25 62
      vertex 27.5 12.25 0
      vertex 48.9852 12.25 0
    endloop
  endfacet
  facet normal 0.406737 1.07031e-06 0.913545
    outer loop
      vertex -49.3119 10.8896 34.1989
      vertex 27.5 12.25 0
      vertex -48.9832 12.25 34.0525
    endloop
  endfacet
  facet normal 0.406737 -1.34981e-06 0.913545
    outer loop
      vertex -49.7036 8.93296 34.3733
      vertex 27.5 12.25 0
      vertex -49.3119 10.8896 34.1989
    endloop
  endfacet
  facet normal 0.406737 -3.42979e-08 0.913545
    outer loop
      vertex -50.0178 6.96236 34.5131
      vertex 27.5 12.25 0
      vertex -49.7036 8.93296 34.3733
    endloop
  endfacet
  facet normal 0.406737 -1.07031e-06 0.913545
    outer loop
      vertex 27.5 -12.25 0
      vertex -49.3119 -10.8896 34.1989
      vertex -48.9832 -12.25 34.0525
    endloop
  endfacet
  facet normal 0.406737 1.0508e-06 0.913545
    outer loop
      vertex -50.2538 4.9809 34.6182
      vertex 27.5 12.25 0
      vertex -50.0178 6.96236 34.5131
    endloop
  endfacet
  facet normal 0.406737 1.34981e-06 0.913545
    outer loop
      vertex 27.5 -12.25 0
      vertex -49.7036 -8.93296 34.3733
      vertex -49.3119 -10.8896 34.1989
    endloop
  endfacet
  facet normal 0.406737 9.65581e-08 0.913545
    outer loop
      vertex -50.4113 2.99165 34.6884
      vertex 27.5 12.25 0
      vertex -50.2538 4.9809 34.6182
    endloop
  endfacet
  facet normal 0.406737 3.42979e-08 0.913545
    outer loop
      vertex 27.5 -12.25 0
      vertex -50.0178 -6.96236 34.5131
      vertex -49.7036 -8.93296 34.3733
    endloop
  endfacet
  facet normal 0.406737 -1.6921e-07 0.913545
    outer loop
      vertex -50.4901 0.997736 34.7234
      vertex 27.5 12.25 0
      vertex -50.4113 2.99165 34.6884
    endloop
  endfacet
  facet normal 0.406737 -1.0508e-06 0.913545
    outer loop
      vertex 27.5 -12.25 0
      vertex -50.2538 -4.9809 34.6182
      vertex -50.0178 -6.96236 34.5131
    endloop
  endfacet
  facet normal 0.406737 0 0.913545
    outer loop
      vertex 27.5 12.25 0
      vertex -50.4901 0.997736 34.7234
      vertex 27.5 -12.25 0
    endloop
  endfacet
  facet normal 0.406737 -9.65581e-08 0.913545
    outer loop
      vertex 27.5 -12.25 0
      vertex -50.4113 -2.99165 34.6884
      vertex -50.2538 -4.9809 34.6182
    endloop
  endfacet
  facet normal 0.406737 -0 0.913545
    outer loop
      vertex -50.4901 -0.997736 34.7234
      vertex 27.5 -12.25 0
      vertex -50.4901 0.997736 34.7234
    endloop
  endfacet
  facet normal 0.406737 1.6921e-07 0.913545
    outer loop
      vertex 27.5 -12.25 0
      vertex -50.4901 -0.997736 34.7234
      vertex -50.4113 -2.99165 34.6884
    endloop
  endfacet
endsolid OpenSCAD_Model
